<svg width="191" height="192" viewBox="0 0 191 192" fill="none" xmlns="http://www.w3.org/2000/svg">
<g id="Pencil" opacity="0.2">
<g id="Group">
<path id="Vector" fill-rule="evenodd" clip-rule="evenodd" d="M111.291 39.8785C106.209 41.0706 102.633 44.2705 95.9823 53.7446C94.1 56.4425 92.2177 58.6385 91.7784 58.6385C90.461 58.6385 86.8219 60.8971 85.3789 64.0342C84.6259 65.6659 83.1829 67.7989 82.1792 68.8656C78.6658 73.4458 83.4341 73.6339 75.403 83.9866C63.2311 99.7976 58.3367 107.64 57.8974 111.907C57.3955 117.178 48.6119 145.161 50.3686 149.992C51.5605 153.38 55.5763 154.07 61.4113 152.313C71.8891 149.176 90.6496 135.373 94.2261 132.299C98.8062 128.345 111.668 105.633 113.237 105.57C114.993 105.507 118.633 103.75 119.26 103.123C122.146 100.237 130.366 86.3707 131.118 82.7943C131.432 81.2887 130.993 79.9082 130.993 78.1515C130.993 77.0848 132.562 74.6381 135.636 70.8104C141.785 63.2187 141.847 63.0305 138.208 55.5013C131.683 42.3881 122.899 37.2433 111.291 39.8785ZM119.511 43.0156C124.907 44.3332 130.052 48.8507 133.126 54.8113C136.075 60.6464 135.51 62.0894 125.911 73.8225C125.66 74.0732 124.907 72.4421 123.778 70.7479C119.448 64.0973 112.296 59.2659 102.696 58.2622C98.9944 57.8855 98.1158 59.3285 104.578 50.5449C106.837 47.4703 108.155 45.7763 109.158 44.7096C110.853 43.0156 114.492 41.8235 119.511 43.0156ZM104.829 62.7168C113.55 65.5403 116.625 67.3596 121.707 76.8336C124.969 82.9198 124.656 82.2299 120.954 86.6845C119.511 88.4412 119.386 88.4412 118.946 87.3119C117.441 83.108 116.186 80.8494 112.609 77.3985C106.021 71.7516 104.202 73.2576 109.535 79.4064C115.621 86.4963 116.876 90.5746 114.554 95.8448C113.174 98.9194 112.17 99.9857 111.856 98.6683C107.904 84.0491 99.1825 77.8378 89.3947 76.9592C85.3164 76.5829 84.7515 75.6418 87.0106 73.132C88.3905 71.626 90.3984 72.3165 95.2923 72.9439C97.4883 73.2576 97.6139 70.246 95.1667 69.6186C91.967 68.8026 90.9003 67.7363 93.347 63.9717C95.606 60.6464 97.7395 60.3952 104.829 62.7168ZM98.9313 65.7284C97.7395 66.4814 97.4253 68.05 101.504 69.493C105.394 70.8735 107.402 69.8693 107.402 68.1126C107.402 67.4226 106.9 66.3558 105.206 65.9796C102.947 65.4147 99.6218 65.2891 98.9313 65.7284ZM92.7826 80.8494C93.4726 81.2887 93.5356 81.3513 91.214 84.8021C85.5045 93.2725 83.1829 96.5348 81.4887 98.4801C80.5476 99.5469 78.4146 102.747 76.7204 105.57C71.2617 114.856 66.4938 117.805 64.4229 113.162C63.6704 111.531 63.858 109.648 64.7992 108.205C67.497 104.064 82.1167 81.0375 85.6927 80.0964C88.6417 79.2808 91.7158 80.1594 92.7826 80.8494ZM100.124 84.551C104.766 89.3823 105.394 92.457 101.755 96.9115C94.9786 105.256 84.3122 119.624 80.0457 122.699C77.1597 124.769 75.7793 118.746 76.5953 114.982C77.6616 109.899 81.928 103.06 91.3396 90.7002C96.7353 83.4847 97.6765 82.0417 100.124 84.551ZM106.586 100.049C106.774 101.429 107.527 103.311 106.021 105.382C104.955 106.887 101.504 112.597 98.7432 117.177C93.9749 125.208 87.7005 130.541 87.1987 129.161C86.5713 127.467 90.1473 119.436 93.4726 114.856C101.817 103.625 105.77 94.5274 106.586 100.049ZM71.7009 120.126C71.8891 125.083 74.8381 127.216 79.732 125.899C82.8692 125.083 82.8692 125.02 81.6143 127.969C81.0499 129.287 80.7362 131.169 80.8613 132.173C81.175 134.181 80.485 134.432 75.6542 137.506C74.9637 137.945 74.0851 137.757 73.6463 137.067C71.1365 133.239 67.6226 131.294 63.6699 130.667C59.7171 130.04 59.9683 130.73 61.1601 124.456L62.1643 119.122C62.9799 119.122 65.9915 119.812 68.8149 118.558C70.0073 118.056 71.2621 117.554 71.2621 117.554C71.2621 117.554 71.7009 118.746 71.7009 120.126Z" fill="white"/>
</g>
</g>
</svg>
