<svg width="24" height="24" fill="none" xmlns="http://www.w3.org/2000/svg"><mask id="a" fill="#fff"><path d="M16 12.75H8c-.41 0-.75-.34-.75-.75s.34-.75.75-.75h8c.41 0 .75.34.75.75s-.34.75-.75.75Z"/></mask><path d="M16 12.75H8c-.41 0-.75-.34-.75-.75s.34-.75.75-.75h8c.41 0 .75.34.75.75s-.34.75-.75.75Z" fill="#000"/><path d="M16 11.25H8v3h8v-3Zm-8 0c.418 0 .75.332.75.75h-3A2.255 2.255 0 0 0 8 14.25v-3Zm.75.75c0 .418-.332.75-.75.75v-3A2.255 2.255 0 0 0 5.75 12h3Zm-.75.75h8v-3H8v3Zm8 0a.745.745 0 0 1-.75-.75h3A2.255 2.255 0 0 0 16 9.75v3Zm-.75-.75c0-.418.332-.75.75-.75v3A2.255 2.255 0 0 0 18.25 12h-3Z" fill="#111322" mask="url(#a)"/><mask id="b" fill="#fff"><path d="M12 16.75c-.41 0-.75-.34-.75-.75V8c0-.41.34-.75.75-.75s.75.34.75.75v8c0 .41-.34.75-.75.75Z"/></mask><path d="M12 16.75c-.41 0-.75-.34-.75-.75V8c0-.41.34-.75.75-.75s.75.34.75.75v8c0 .41-.34.75-.75.75Z" fill="#000"/><path d="M12 15.25c.418 0 .75.332.75.75h-3A2.255 2.255 0 0 0 12 18.25v-3Zm.75.75V8h-3v8h3Zm0-8c0 .418-.332.75-.75.75v-3A2.255 2.255 0 0 0 9.75 8h3Zm-.75.75a.745.745 0 0 1-.75-.75h3A2.255 2.255 0 0 0 12 5.75v3ZM11.25 8v8h3V8h-3Zm0 8c0-.418.332-.75.75-.75v3A2.255 2.255 0 0 0 14.25 16h-3Z" fill="#111322" mask="url(#b)"/><path d="M15 22.25H9c-2.658 0-4.435-.57-5.558-1.692C2.32 19.435 1.75 17.658 1.75 15V9c0-2.658.57-4.435 1.692-5.558C4.565 2.32 6.342 1.75 9 1.75h6c2.658 0 4.435.57 5.558 1.692C21.68 4.565 22.25 6.342 22.25 9v6c0 2.658-.57 4.435-1.692 5.558-1.123 1.122-2.9 1.692-5.558 1.692Zm-6-20c-2.34 0-4.076.411-5.207 1.543C2.66 4.924 2.25 6.66 2.25 9v6c0 2.34.411 4.076 1.543 5.207C4.924 21.34 6.66 21.75 9 21.75h6c2.34 0 4.076-.411 5.207-1.543C21.34 19.076 21.75 17.34 21.75 15V9c0-2.34-.411-4.076-1.543-5.207C19.076 2.66 17.34 2.25 15 2.25H9Z" fill="#000" stroke="#000"/></svg>