<svg width="20" height="20" viewBox="0 0 20 20" fill="none" xmlns="http://www.w3.org/2000/svg">
<g id="vuesax/linear/calendar-add">
<g id="calendar-add">
<path id="Vector" d="M6.66602 1.6665V4.1665" stroke="#B9C0D4" stroke-width="1.25" stroke-miterlimit="10" stroke-linecap="round" stroke-linejoin="round"/>
<path id="Vector_2" d="M13.334 1.6665V4.1665" stroke="#B9C0D4" stroke-width="1.25" stroke-miterlimit="10" stroke-linecap="round" stroke-linejoin="round"/>
<path id="Vector_3" d="M2.91602 7.5752H17.0827" stroke="#B9C0D4" stroke-width="1.25" stroke-miterlimit="10" stroke-linecap="round" stroke-linejoin="round"/>
<path id="Vector_4" d="M14.9993 19.1667C16.8403 19.1667 18.3327 17.6743 18.3327 15.8333C18.3327 13.9924 16.8403 12.5 14.9993 12.5C13.1584 12.5 11.666 13.9924 11.666 15.8333C11.666 17.6743 13.1584 19.1667 14.9993 19.1667Z" stroke="#B9C0D4" stroke-width="1.25" stroke-miterlimit="10" stroke-linecap="round" stroke-linejoin="round"/>
<g id="Group">
<path id="Vector_5" d="M16.2412 15.875H13.7578" stroke="#B9C0D4" stroke-width="1.25" stroke-miterlimit="10" stroke-linecap="round" stroke-linejoin="round"/>
<path id="Vector_6" d="M15 14.6582V17.1499" stroke="#B9C0D4" stroke-width="1.25" stroke-miterlimit="10" stroke-linecap="round" stroke-linejoin="round"/>
</g>
<path id="Vector_7" d="M17.5 7.08317V13.6332C16.8917 12.9415 16 12.4998 15 12.4998C13.1583 12.4998 11.6667 13.9915 11.6667 15.8332C11.6667 16.4582 11.8417 17.0498 12.15 17.5498C12.325 17.8498 12.55 18.1165 12.8083 18.3332H6.66667C3.75 18.3332 2.5 16.6665 2.5 14.1665V7.08317C2.5 4.58317 3.75 2.9165 6.66667 2.9165H13.3333C16.25 2.9165 17.5 4.58317 17.5 7.08317Z" stroke="#B9C0D4" stroke-width="1.25" stroke-miterlimit="10" stroke-linecap="round" stroke-linejoin="round"/>
<path id="Vector_8" d="M9.99607 11.4167H10.0036" stroke="#B9C0D4" stroke-width="1.25" stroke-linecap="round" stroke-linejoin="round"/>
<path id="Vector_9" d="M6.91209 11.4167H6.91957" stroke="#B9C0D4" stroke-width="1.25" stroke-linecap="round" stroke-linejoin="round"/>
<path id="Vector_10" d="M6.91209 13.9167H6.91957" stroke="#B9C0D4" stroke-width="1.25" stroke-linecap="round" stroke-linejoin="round"/>
</g>
</g>
</svg>
