<svg width="64" height="64" fill="none" xmlns="http://www.w3.org/2000/svg"><g stroke="#000" stroke-width="3" stroke-linecap="round" stroke-linejoin="round" clip-path="url(#a)"><path d="M46.171 17.828a21.257 21.257 0 0 0 15.543.458M18.286 61.714a21.394 21.394 0 0 0-.457-15.588A21.67 21.67 0 0 1 22.4 22.537a21.943 21.943 0 0 1 11.246-5.943"/><path d="M30.172 47.406a21.989 21.989 0 0 0 11.29-5.989m0 0a21.623 21.623 0 0 0 4.572-23.589 21.257 21.257 0 0 1-.32-15.542m-4.251 39.131-18.88-18.88M2.286 45.714a21.028 21.028 0 0 1 15.543.503"/></g><defs><clipPath id="a"><path fill="#fff" d="M0 0h64v64H0z"/></clipPath></defs></svg>