<svg width="64" height="64" fill="none" xmlns="http://www.w3.org/2000/svg"><path d="M17.715 7c1.232 0 2.232 1.028 2.232 2.294v6.421h6.25c.592 0 1.16.242 1.578.672.419.43.654 1.014.654 1.622 0 .608-.235 1.192-.654 1.622-.419.43-.986.672-1.578.672h-6.25v7.34c0 .607-.235 1.19-.654 1.62-.419.431-.986.673-1.578.673-.593 0-1.16-.242-1.579-.672a2.326 2.326 0 0 1-.654-1.622v-7.34h-6.25c-.592 0-1.16-.241-1.578-.671A2.326 2.326 0 0 1 7 18.009c0-.608.235-1.192.654-1.622.419-.43.986-.671 1.578-.671h6.25V9.294c0-1.266 1-2.294 2.233-2.294Zm10.06 46.084-6.903-7.093 6.903-7.094c.419-.43.654-1.014.654-1.622 0-.608-.235-1.192-.654-1.622a2.203 2.203 0 0 0-1.578-.672c-.592 0-1.16.242-1.579.672l-6.903 7.094-6.904-7.094a2.23 2.23 0 0 0-.724-.497 2.18 2.18 0 0 0-.855-.175c-.592 0-1.16.242-1.578.672A2.326 2.326 0 0 0 7 37.275c0 .608.235 1.192.654 1.622l6.903 7.094-6.903 7.093a2.3 2.3 0 0 0-.484.744 2.349 2.349 0 0 0 .484 2.5 2.18 2.18 0 0 0 2.433.497c.27-.115.517-.284.724-.497l6.904-7.093 6.903 7.093c.419.43.987.672 1.579.672s1.16-.242 1.578-.672c.419-.43.654-1.014.654-1.622 0-.608-.235-1.192-.654-1.622Zm10.029-37.369c-.592 0-1.16.242-1.579.672a2.326 2.326 0 0 0-.653 1.622c0 .608.235 1.192.653 1.622.419.43.987.672 1.579.672h16.964c.592 0 1.16-.242 1.578-.672.419-.43.654-1.014.654-1.622 0-.608-.235-1.192-.654-1.622a2.202 2.202 0 0 0-1.578-.671H37.804Zm0 27.523c-.592 0-1.16.242-1.579.672a2.326 2.326 0 0 0-.653 1.622c0 .608.235 1.192.653 1.622.419.43.987.671 1.579.671h16.964c.592 0 1.16-.241 1.578-.671.419-.43.654-1.014.654-1.622 0-.608-.235-1.192-.654-1.622a2.202 2.202 0 0 0-1.578-.672H37.804Zm12.053-5.504c0 .973-.376 1.906-1.046 2.595a3.523 3.523 0 0 1-2.525 1.075 3.524 3.524 0 0 1-2.526-1.075 3.721 3.721 0 0 1-1.046-2.595c0-.974.377-1.907 1.046-2.595a3.524 3.524 0 0 1 2.526-1.075c.947 0 1.855.387 2.525 1.075a3.721 3.721 0 0 1 1.046 2.595ZM46.286 57c.947 0 1.855-.387 2.525-1.075a3.721 3.721 0 0 0 1.046-2.595c0-.973-.376-1.907-1.046-2.595a3.523 3.523 0 0 0-2.525-1.075c-.947 0-1.856.387-2.526 1.075a3.721 3.721 0 0 0-1.046 2.595c0 .973.377 1.907 1.046 2.595A3.524 3.524 0 0 0 46.286 57Z" fill="#fff"/></svg>