<svg width="24" height="24" viewBox="0 0 24 24" fill="none" xmlns="http://www.w3.org/2000/svg">
<g id="R icon">
<g id="vuesax/outline/arrow-left">
<g id="arrow-left">
<g id="Vector">
<mask id="path-1-inside-1_1642_144190" fill="white">
<path d="M14.9998 20.67C14.8098 20.67 14.6198 20.6 14.4698 20.45L7.94979 13.93C6.88979 12.87 6.88979 11.13 7.94979 10.07L14.4698 3.55002C14.7598 3.26002 15.2398 3.26002 15.5298 3.55002C15.8198 3.84002 15.8198 4.32002 15.5298 4.61002L9.00979 11.13C8.52979 11.61 8.52979 12.39 9.00979 12.87L15.5298 19.39C15.8198 19.68 15.8198 20.16 15.5298 20.45C15.3798 20.59 15.1898 20.67 14.9998 20.67Z"/>
</mask>
<path d="M14.9998 20.67C14.8098 20.67 14.6198 20.6 14.4698 20.45L7.94979 13.93C6.88979 12.87 6.88979 11.13 7.94979 10.07L14.4698 3.55002C14.7598 3.26002 15.2398 3.26002 15.5298 3.55002C15.8198 3.84002 15.8198 4.32002 15.5298 4.61002L9.00979 11.13C8.52979 11.61 8.52979 12.39 9.00979 12.87L15.5298 19.39C15.8198 19.68 15.8198 20.16 15.5298 20.45C15.3798 20.59 15.1898 20.67 14.9998 20.67Z" fill="#5A5570"/>
<path d="M14.4698 20.45L15.5304 19.3894L14.4698 20.45ZM7.94979 13.93L6.88912 14.9907H6.88913L7.94979 13.93ZM7.94979 10.07L6.88913 9.00936H6.88912L7.94979 10.07ZM14.4698 3.55002L15.5304 4.61068L14.4698 3.55002ZM15.5298 4.61002L14.4691 3.54936V3.54936L15.5298 4.61002ZM9.00979 11.13L10.0704 12.1907L9.00979 11.13ZM9.00979 12.87L7.94913 13.9307H7.94913L9.00979 12.87ZM15.5298 19.39L16.5904 18.3294L15.5298 19.39ZM15.5298 20.45L16.5533 21.5466L16.5722 21.529L16.5904 21.5107L15.5298 20.45ZM14.9998 19.17C15.1861 19.17 15.3843 19.2432 15.5304 19.3894L13.4091 21.5107C13.8553 21.9568 14.4334 22.17 14.9998 22.17V19.17ZM15.5304 19.3894L9.01045 12.8694L6.88913 14.9907L13.4091 21.5107L15.5304 19.3894ZM9.01045 12.8694C8.53623 12.3951 8.53623 11.6049 9.01045 11.1307L6.88912 9.00936C5.24334 10.6551 5.24334 13.3449 6.88912 14.9907L9.01045 12.8694ZM9.01045 11.1307L15.5304 4.61068L13.4091 2.48936L6.88913 9.00936L9.01045 11.1307ZM15.5304 4.61068C15.2347 4.90647 14.7649 4.90647 14.4691 4.61068L16.5904 2.48936C15.7147 1.61357 14.2849 1.61357 13.4091 2.48936L15.5304 4.61068ZM14.4691 4.61068C14.1733 4.31489 14.1733 3.84515 14.4691 3.54936L16.5904 5.67068C17.4662 4.79489 17.4662 3.36515 16.5904 2.48936L14.4691 4.61068ZM14.4691 3.54936L7.94913 10.0694L10.0704 12.1907L16.5904 5.67068L14.4691 3.54936ZM7.94913 10.0694C6.88334 11.1351 6.88334 12.8649 7.94913 13.9307L10.0704 11.8094C10.1762 11.9151 10.1762 12.0849 10.0704 12.1907L7.94913 10.0694ZM7.94913 13.9307L14.4691 20.4507L16.5904 18.3294L10.0704 11.8094L7.94913 13.9307ZM14.4691 20.4507C14.1733 20.1549 14.1733 19.6851 14.4691 19.3894L16.5904 21.5107C17.4662 20.6349 17.4662 19.2051 16.5904 18.3294L14.4691 20.4507ZM14.5063 19.3534C14.6029 19.2632 14.7693 19.17 14.9998 19.17V22.17C15.6102 22.17 16.1566 21.9168 16.5533 21.5466L14.5063 19.3534Z" fill="#5A5570" mask="url(#path-1-inside-1_1642_144190)"/>
</g>
</g>
</g>
</g>
</svg>
