<svg width="20" height="20" viewBox="0 0 20 20" fill="none" xmlns="http://www.w3.org/2000/svg">
<g id="vuesax/bold/clock">
<g id="clock">
<path id="Vector" d="M9.92626 12.0796L9.92645 12.0797L12.5008 13.616C12.6938 13.7409 12.8984 13.7837 13.0827 13.7837C13.4644 13.7837 13.8412 13.5919 14.0534 13.232C14.3803 12.6923 14.1987 12.0014 13.6621 11.6866L11.0806 10.146L11.0806 10.1459L11.0754 10.1429C11.0517 10.1292 10.9792 10.0639 10.9079 9.93855C10.837 9.81381 10.816 9.7153 10.816 9.68366V6.26699C10.816 5.64918 10.3088 5.14199 9.69102 5.14199C9.07321 5.14199 8.56602 5.64918 8.56602 6.26699V9.68366C8.56602 10.6009 9.13318 11.6058 9.92626 12.0796ZM2.16602 10.0003C2.16602 5.6848 5.68382 2.16699 9.99935 2.16699C14.3149 2.16699 17.8327 5.6848 17.8327 10.0003C17.8327 14.3159 14.3149 17.8337 9.99935 17.8337C5.68382 17.8337 2.16602 14.3159 2.16602 10.0003Z" fill="#292D32" stroke="#090129"/>
</g>
</g>
</svg>
