<svg width="33" height="32" fill="none" xmlns="http://www.w3.org/2000/svg"><path d="M22 2.667H11.333c-4.666 0-6.666 2.666-6.666 6.666v13.333c0 4 2 6.667 6.666 6.667H22c4.667 0 6.667-2.666 6.667-6.666V9.332c0-4-2-6.667-6.667-6.667ZM11.333 16.332h5.334c.546 0 1 .454 1 1 0 .547-.454 1-1 1h-5.334c-.546 0-1-.453-1-1 0-.546.454-1 1-1ZM22 23.667H11.333c-.546 0-1-.454-1-1 0-.547.454-1 1-1H22c.547 0 1 .453 1 1 0 .546-.453 1-1 1Zm3.333-11.334h-2.666A3.665 3.665 0 0 1 19 8.666V6c0-.547.453-1 1-1 .547 0 1 .453 1 1v2.666c0 .92.747 1.667 1.667 1.667h2.666c.547 0 1 .454 1 1 0 .547-.453 1-1 1Z" fill="#292D32"/></svg>