<svg width="20" height="20" viewBox="0 0 20 20" fill="none" xmlns="http://www.w3.org/2000/svg">
<path d="M3.7234 15.3138L3.72126 15.3118C3.59327 15.1912 3.49049 15.0359 3.42335 14.8534C3.48526 15.018 3.5821 15.1724 3.72183 15.3044C4.06025 15.624 4.50715 15.6767 4.89459 15.618L4.89461 15.6181L4.9062 15.6161L7.58953 15.1578L7.59049 15.1576C7.80684 15.1203 8.03554 15.0207 8.21268 14.9254C8.39017 14.83 8.59683 14.6952 8.74522 14.5394L8.74694 14.5376L15.5886 7.29591L15.5898 7.29461C16.1252 6.72473 16.6129 6.05674 16.6613 5.25648C16.6849 4.86602 16.6028 4.48825 16.4251 4.11819C16.5848 4.44628 16.6614 4.7615 16.67 5.06349C16.6887 5.72639 16.3832 6.47159 15.5966 7.30415L8.75499 14.5458L8.75498 14.5458L8.75239 14.5486C8.49585 14.8234 7.97061 15.1058 7.59985 15.1666L7.59985 15.1666L7.59573 15.1673L4.9456 15.6199C4.87462 15.6245 4.82511 15.6289 4.78422 15.6326C4.72367 15.638 4.68203 15.6417 4.61763 15.6417C4.24991 15.6417 3.93531 15.5154 3.7234 15.3138ZM3.85543 10.8024C3.81912 10.8802 3.783 10.9663 3.75127 11.0555C3.77917 10.9758 3.81256 10.8932 3.85115 10.8102C3.87547 10.7578 3.90084 10.7074 3.92686 10.6595C3.90065 10.7085 3.87679 10.7566 3.85543 10.8024Z" fill="black" stroke="#3A3454" stroke-width="1.25"/>
<path d="M14.4611 8.50596C14.4611 8.50597 14.4611 8.50598 14.4611 8.50598L14.4611 8.50596ZM9.92502 4.2204C10.2448 6.23916 11.7241 7.84778 13.6535 8.35927C11.719 7.85045 10.2339 6.24461 9.9181 4.2175L9.91797 4.21586L9.91799 4.21575C9.91801 4.21567 9.91825 4.21482 9.91921 4.2135C9.91961 4.21297 9.92005 4.21245 9.92053 4.21197C9.92144 4.21279 9.92225 4.21375 9.92289 4.21478C9.92348 4.21572 9.92435 4.21734 9.92502 4.2204Z" fill="black" stroke="#3A3454" stroke-width="1.25"/>
<path d="M17.5 18.4583H2.5C2.46985 18.4583 2.43857 18.446 2.41293 18.4204C2.38728 18.3947 2.375 18.3635 2.375 18.3333C2.375 18.3032 2.38728 18.2719 2.41293 18.2462C2.43857 18.2206 2.46985 18.2083 2.5 18.2083H17.5C17.5301 18.2083 17.5614 18.2206 17.5871 18.2462C17.6127 18.2719 17.625 18.3032 17.625 18.3333C17.625 18.3635 17.6127 18.3947 17.5871 18.4204C17.5614 18.446 17.5301 18.4583 17.5 18.4583Z" fill="black" stroke="black"/>
</svg>
