<svg width="97" height="42" viewBox="0 0 97 42" fill="none" xmlns="http://www.w3.org/2000/svg">
<path d="M93.9744 13.2233C93.7365 11.9469 93.4901 10.6276 93.3209 9.14163C93.2566 8.57075 92.7424 8.16023 92.1703 8.22437C91.5983 8.28852 91.1869 8.80381 91.2512 9.37255C91.4268 10.9312 91.6797 12.289 91.9261 13.6018C92.3075 15.648 92.6695 17.5808 92.6588 19.9584C92.646 23.0031 92.391 26.4691 90.6062 29.0776C88.935 31.5215 85.4984 32.6996 82.3145 32.6996C81.0547 32.6996 79.8334 32.5157 78.7792 32.1501C77.6715 31.7674 76.7909 31.1045 76.2982 30.2835C76.1353 30.0141 76.0089 29.7212 75.9103 29.3919C75.7368 28.8103 75.6747 28.186 75.6468 27.5274C76.611 28.2672 77.7894 28.5708 78.8992 28.3613C81.8131 27.8075 83.5829 25.0109 83.5186 21.0617C83.4565 17.2537 81.6139 12.9283 78.3229 12.4151C78.1643 12.3895 76.7417 12.2034 75.4497 13.249C74.3227 14.162 73.6971 15.68 73.5899 17.7626C73.5599 18.3356 74.0035 18.8252 74.5777 18.853C75.1519 18.883 75.6425 18.4404 75.6704 17.8674C75.7432 16.4391 76.1117 15.4064 76.7374 14.8825C77.3223 14.3907 77.9865 14.4677 77.9994 14.4677C79.8077 14.75 81.3825 17.7861 81.436 21.0959C81.4532 22.1885 81.2946 25.7913 78.5093 26.3194C77.9736 26.422 77.3587 26.2424 76.8638 25.8404C76.0518 25.1819 75.5718 23.9632 75.5033 22.3938C75.5011 22.3147 75.499 22.2334 75.4968 22.1543C75.4797 21.5834 74.9998 21.128 74.4298 21.1472C73.8578 21.1601 73.4035 21.6326 73.4142 22.2056C73.4164 22.2997 73.4185 22.3916 73.4228 22.4836C73.4357 22.8791 73.4485 23.2726 73.4614 23.6681C73.4871 24.4229 73.5107 25.1776 73.5299 25.9324C73.5364 26.1441 73.5385 26.3579 73.5407 26.5717C73.5557 27.6899 73.5728 28.8467 73.9135 29.9884C73.9135 29.9884 73.9135 29.9884 73.9135 29.9906C74.0613 30.4887 74.2563 30.9356 74.5091 31.3547C75.2526 32.5948 76.5274 33.5762 78.0979 34.1172C79.3663 34.5555 80.8104 34.7778 82.2995 34.7757C86.124 34.7757 90.2334 33.3068 92.3246 30.2514C94.4265 27.1789 94.7243 23.3303 94.7393 19.9691C94.7543 17.3948 94.375 15.37 93.9744 13.2233Z" fill="#090129"/>
<path d="M84.856 21.4382C84.796 22.0091 85.2117 22.5201 85.7838 22.5799C85.8202 22.5842 85.8566 22.5864 85.893 22.5864C86.4201 22.5864 86.8722 22.1887 86.9279 21.6563C87.7892 13.4501 81.1215 4.55548 80.8366 4.18131C80.4895 3.72375 79.836 3.63395 79.3775 3.98033C78.919 4.3267 78.829 4.97883 79.1761 5.43639C79.2404 5.51978 85.6316 14.0552 84.856 21.4382Z" fill="#090129"/>
<path d="M88.6195 21.267C88.5831 21.8401 89.018 22.334 89.5922 22.3703C89.6137 22.3725 89.6372 22.3725 89.6586 22.3725C90.2029 22.3725 90.6614 21.9491 90.6978 21.3996C91.0877 15.2632 87.8139 6.95225 87.6746 6.6016C87.4625 6.06706 86.8562 5.80621 86.3227 6.02002C85.787 6.2317 85.5256 6.83679 85.7377 7.36919C85.772 7.45044 88.9795 15.601 88.6195 21.267Z" fill="#090129"/>
<path d="M91.7771 37.5721C91.3379 37.1338 91.1172 36.6036 91.1172 35.9835C91.1172 35.3634 91.3379 34.8332 91.7771 34.3949C92.2163 33.9566 92.7477 33.7363 93.369 33.7363C93.9904 33.7363 94.5217 33.9566 94.961 34.3949C95.4002 34.8332 95.6209 35.3634 95.6209 35.9835C95.6209 36.6036 95.4002 37.1338 94.961 37.5721C94.5217 38.0105 93.9904 38.2307 93.369 38.2307C92.7477 38.2307 92.2163 38.0105 91.7771 37.5721ZM92.0192 34.6237C91.6507 34.9957 91.4664 35.449 91.4664 35.9835C91.4664 36.518 91.6528 36.9713 92.0235 37.3455C92.3942 37.7197 92.8441 37.9078 93.3712 37.9078C93.8982 37.9078 94.346 37.7197 94.7188 37.3455C95.0895 36.9713 95.2759 36.5159 95.2759 35.9835C95.2759 35.449 95.0895 34.9957 94.7188 34.6215C94.3482 34.2473 93.8982 34.0592 93.3712 34.0592C92.842 34.0592 92.392 34.2473 92.0192 34.6237ZM93.9175 36.0562L94.4896 36.8259C94.5196 36.8751 94.5324 36.9243 94.5324 36.9692C94.5324 37.0397 94.5089 37.0996 94.4617 37.1467C94.4146 37.1937 94.3546 37.2172 94.2839 37.2172C94.1961 37.2172 94.1232 37.1723 94.0611 37.0804L93.2897 35.9194C93.2726 35.8937 93.264 35.8766 93.264 35.8638C93.264 35.8189 93.2876 35.7954 93.3326 35.7954H93.4376C93.549 35.7954 93.6411 35.7697 93.714 35.7205C93.7868 35.6713 93.8232 35.5944 93.8232 35.4917C93.8232 35.2758 93.6968 35.1689 93.444 35.1689H93.1698V36.9628C93.1698 37.0333 93.1441 37.0932 93.0948 37.1424C93.0455 37.1916 92.9855 37.2172 92.9148 37.2172C92.8441 37.2172 92.7841 37.1916 92.7348 37.1424C92.6855 37.0932 92.6598 37.0333 92.6598 36.9628V34.9764C92.6598 34.923 92.6791 34.8781 92.7155 34.8396C92.752 34.8033 92.7991 34.784 92.8527 34.784H93.4504C93.7033 34.784 93.909 34.846 94.0654 34.97C94.2239 35.094 94.301 35.2672 94.301 35.4917C94.3032 35.7782 94.1746 35.9664 93.9175 36.0562Z" fill="#090129"/>
<path d="M19.6897 33.7196V30.4718C19.6897 30.0698 19.5654 29.7405 19.3148 29.4818C19.0641 29.2231 18.7513 29.0948 18.3763 29.0948C18.0014 29.0948 17.6885 29.2231 17.4379 29.4818C17.1872 29.7405 17.0629 30.0698 17.0629 30.4718V33.7196C17.0629 33.9163 16.9943 34.0831 16.8551 34.2199C16.7158 34.3589 16.5487 34.4273 16.3537 34.4273C16.1566 34.4273 15.9895 34.3589 15.8524 34.2199C15.7131 34.0809 15.6445 33.9141 15.6445 33.7196V28.5603C15.6445 28.3636 15.7131 28.1968 15.8524 28.0599C15.9916 27.921 16.1587 27.8525 16.3537 27.8525C16.5508 27.8525 16.718 27.921 16.8551 28.0599C16.9943 28.1989 17.0629 28.3657 17.0629 28.5603V28.6009C17.5364 28.1027 18.1213 27.8525 18.8177 27.8525C19.2098 27.8525 19.5783 27.9423 19.9232 28.1198C20.2661 28.2973 20.5403 28.5474 20.746 28.8682C21.3352 28.1904 22.0401 27.8525 22.8629 27.8525C23.5228 27.8525 24.0713 28.0685 24.5041 28.5004C24.9369 28.9323 25.1533 29.5053 25.1533 30.2173V33.7196C25.1533 33.9163 25.0847 34.0831 24.9454 34.2199C24.8062 34.3589 24.639 34.4273 24.4441 34.4273C24.247 34.4273 24.0798 34.3589 23.9427 34.2199C23.8034 34.0809 23.7349 33.9141 23.7349 33.7196V30.4718C23.7349 30.0698 23.6106 29.7405 23.3599 29.4818C23.1092 29.2231 22.7986 29.0948 22.4215 29.0948C22.0465 29.0948 21.7337 29.2231 21.483 29.4818C21.2324 29.7405 21.1081 30.0698 21.1081 30.4718V33.7196C21.1081 33.9163 21.0395 34.0831 20.9003 34.2199C20.761 34.3589 20.5939 34.4273 20.3989 34.4273C20.2018 34.4273 20.0347 34.3589 19.8975 34.2199C19.7583 34.0831 19.6897 33.9163 19.6897 33.7196Z" fill="#090129"/>
<path d="M27.617 33.4801C26.9571 32.8472 26.625 32.0689 26.625 31.141C26.625 30.2152 26.955 29.4348 27.617 28.8019C28.2769 28.169 29.0911 27.8525 30.0553 27.8525C31.0194 27.8525 31.8314 28.169 32.4935 28.8019C33.1534 29.4348 33.4855 30.2152 33.4855 31.141C33.4855 32.0668 33.1556 32.8472 32.4935 33.4801C31.8336 34.113 31.0194 34.4294 30.0553 34.4294C29.0911 34.4294 28.2769 34.113 27.617 33.4801ZM28.6219 29.7255C28.2384 30.0997 28.0455 30.5722 28.0455 31.1431C28.0455 31.714 28.2384 32.1865 28.6219 32.5607C29.0054 32.9349 29.4832 33.123 30.0553 33.123C30.6273 33.123 31.1051 32.9349 31.4886 32.5607C31.8722 32.1865 32.065 31.714 32.065 31.1431C32.065 30.5722 31.8722 30.0997 31.4886 29.7255C31.1051 29.3514 30.6273 29.1654 30.0553 29.1654C29.4832 29.1632 29.0054 29.3514 28.6219 29.7255Z" fill="#090129"/>
<path d="M39.0667 33.7196V30.4718C39.0667 30.0698 38.9424 29.7405 38.6917 29.4818C38.441 29.2231 38.1282 29.0948 37.7533 29.0948C37.3783 29.0948 37.0655 29.2231 36.8148 29.4818C36.5641 29.7405 36.4399 30.0698 36.4399 30.4718V33.7196C36.4399 33.9163 36.3713 34.0831 36.232 34.2199C36.0928 34.3589 35.9256 34.4273 35.7307 34.4273C35.5336 34.4273 35.3664 34.3589 35.2293 34.2199C35.09 34.0809 35.0215 33.9141 35.0215 33.7196V28.5603C35.0215 28.3636 35.09 28.1968 35.2293 28.0599C35.3686 27.921 35.5357 27.8525 35.7307 27.8525C35.9278 27.8525 36.0949 27.921 36.232 28.0599C36.3713 28.1989 36.4399 28.3657 36.4399 28.5603V28.6009C36.9134 28.1027 37.4983 27.8525 38.1946 27.8525C38.5867 27.8525 38.9552 27.9423 39.3002 28.1198C39.643 28.2973 39.9173 28.5474 40.1229 28.8682C40.7122 28.1904 41.4171 27.8525 42.2398 27.8525C42.8997 27.8525 43.4482 28.0685 43.881 28.5004C44.3138 28.9323 44.5302 29.5053 44.5302 30.2173V33.7196C44.5302 33.9163 44.4617 34.0831 44.3224 34.2199C44.1831 34.3589 44.016 34.4273 43.821 34.4273C43.6239 34.4273 43.4568 34.3589 43.3197 34.2199C43.1804 34.0809 43.1118 33.9141 43.1118 33.7196V30.4718C43.1118 30.0698 42.9876 29.7405 42.7369 29.4818C42.4862 29.2231 42.1755 29.0948 41.7984 29.0948C41.4235 29.0948 41.1107 29.2231 40.86 29.4818C40.6093 29.7405 40.485 30.0698 40.485 30.4718V33.7196C40.485 33.9163 40.4165 34.0831 40.2772 34.2199C40.1379 34.3589 39.9708 34.4273 39.7759 34.4273C39.5787 34.4273 39.4116 34.3589 39.2745 34.2199C39.1374 34.0831 39.0667 33.9163 39.0667 33.7196Z" fill="#090129"/>
<path d="M48.2278 28.0134H49.2734C49.4513 28.0134 49.6055 28.0775 49.7362 28.2079C49.8648 28.3362 49.9312 28.4902 49.9312 28.6698C49.9312 28.8472 49.8669 29.0012 49.7362 29.1316C49.6077 29.2599 49.4534 29.3262 49.2734 29.3262H48.2278V33.72C48.2278 33.9168 48.1593 34.0835 48.02 34.2204C47.8808 34.3593 47.7136 34.4278 47.5187 34.4278C47.3215 34.4278 47.1544 34.3593 47.0173 34.2204C46.878 34.0814 46.8095 33.9146 46.8095 33.72V29.324H46.2867C46.1088 29.324 45.9546 29.2599 45.8239 29.1295C45.6953 29.0012 45.6289 28.8472 45.6289 28.6676C45.6289 28.4902 45.6932 28.3362 45.8239 28.2058C45.9524 28.0775 46.1067 28.0112 46.2867 28.0112H46.8095V26.7946C46.8095 26.5979 46.878 26.4312 47.0173 26.2943C47.1566 26.1553 47.3237 26.0869 47.5187 26.0869C47.7158 26.0869 47.8829 26.1553 48.02 26.2943C48.1593 26.4333 48.2278 26.6001 48.2278 26.7946V28.0134Z" fill="#090129"/>
<path d="M56.1565 28.8959V28.5624C56.1565 28.3657 56.2251 28.1989 56.3643 28.0621C56.5036 27.9231 56.6707 27.8547 56.8657 27.8547C57.0628 27.8547 57.2299 27.9231 57.367 28.0621C57.5063 28.2011 57.5749 28.3678 57.5749 28.5624V33.7196C57.5749 33.9163 57.5063 34.0831 57.367 34.2199C57.2278 34.3589 57.0607 34.4273 56.8657 34.4273C56.6686 34.4273 56.5014 34.3589 56.3643 34.2199C56.2251 34.0809 56.1565 33.9141 56.1565 33.7196V33.386C55.5951 34.0809 54.8174 34.4294 53.8254 34.4294C52.9319 34.4294 52.1734 34.113 51.5478 33.4801C50.9222 32.8472 50.6094 32.0689 50.6094 31.141C50.6094 30.2152 50.9222 29.4348 51.5478 28.8019C52.1734 28.169 52.9319 27.8525 53.8254 27.8525C54.8174 27.8525 55.5951 28.2011 56.1565 28.8959ZM55.5137 32.5971C55.9165 32.1951 56.1158 31.7097 56.1158 31.141C56.1158 30.5701 55.9144 30.0869 55.5137 29.6913C55.1109 29.2958 54.6288 29.0969 54.0675 29.0969C53.5061 29.0969 53.0219 29.2958 52.6212 29.6913C52.2184 30.0869 52.0192 30.5722 52.0192 31.141C52.0192 31.7119 52.2206 32.1951 52.6212 32.5906C53.024 32.9862 53.5061 33.185 54.0675 33.185C54.631 33.185 55.1131 32.9905 55.5137 32.5971Z" fill="#090129"/>
<path d="M58.9023 34.0156C58.9023 33.9621 58.9195 33.9044 58.9559 33.8424L61.527 29.3245H59.8536C59.6758 29.3245 59.5215 29.2604 59.3908 29.13C59.2623 29.0017 59.1959 28.8477 59.1959 28.6681C59.1959 28.4907 59.2602 28.3367 59.3908 28.2063C59.5194 28.078 59.6737 28.0117 59.8536 28.0117H63.4553C63.526 28.0117 63.5881 28.0374 63.6439 28.093C63.6974 28.1464 63.7253 28.2084 63.7253 28.2811C63.7253 28.3346 63.7124 28.3838 63.6846 28.4287L61.0321 32.9594H63.376C63.5539 32.9594 63.7081 33.0235 63.8388 33.1539C63.9674 33.2822 64.0338 33.4362 64.0338 33.6158C64.0338 33.7932 63.9695 33.9472 63.8388 34.0776C63.7103 34.2059 63.556 34.2722 63.376 34.2722H59.1702C58.9902 34.27 58.9023 34.1845 58.9023 34.0156Z" fill="#090129"/>
<path d="M41.2119 19.3828C41.2057 19.387 41.1995 19.3911 41.1953 19.3973C41.2015 19.3911 41.2057 19.387 41.2119 19.3828Z" fill="#090129"/>
<path d="M49.6287 20.3624C49.633 20.3582 49.6373 20.3539 49.6416 20.3496C49.6244 20.3624 49.5987 20.386 49.5645 20.4159C49.5666 20.4138 49.5687 20.4138 49.5709 20.4116C49.5923 20.3945 49.6116 20.3795 49.6287 20.3624Z" fill="#090129"/>
<path d="M37.0452 20.0932C37.0367 20.0782 37.0281 20.0675 37.0195 20.0547C37.026 20.0632 37.0302 20.0739 37.0367 20.0825C37.0388 20.0868 37.0431 20.0889 37.0452 20.0932Z" fill="#090129"/>
<path d="M10.074 14.515C10.044 13.9356 9.58552 13.3775 8.96203 13.4053C8.38568 13.431 7.81789 13.8949 7.85003 14.515C7.88003 15.0966 7.89503 15.6803 7.9036 16.264C7.92502 17.5789 7.91003 18.896 7.83504 20.211C7.79218 20.9893 7.72576 21.7675 7.62721 22.5394C7.50936 23.3669 7.35296 24.205 7.05085 24.9876C6.96087 25.1821 6.86016 25.3681 6.74018 25.5477C6.69947 25.5948 6.65876 25.6418 6.61377 25.6867C6.53449 25.768 6.44665 25.8385 6.36309 25.9134C6.34809 25.9241 6.33309 25.9347 6.31809 25.9454C6.25596 25.9861 6.19168 26.0267 6.12741 26.063C6.05027 26.1079 5.97314 26.1464 5.89387 26.1849C5.68818 26.2619 5.47606 26.3196 5.25966 26.3581C5.02398 26.3795 4.78616 26.3773 4.54833 26.3538C4.28051 26.3282 3.94413 26.4971 3.76201 26.6788C3.56918 26.8713 3.42348 27.1877 3.43634 27.4635C3.44919 27.75 3.54346 28.0472 3.76201 28.2482C3.99126 28.4577 4.2398 28.5433 4.54833 28.5732C6.2581 28.7443 8.105 27.842 8.88918 26.2875C9.37983 25.3147 9.60908 24.2371 9.76549 23.1659C10.1062 20.8289 10.1662 18.4598 10.1233 16.1015C10.1147 15.5734 10.1019 15.0431 10.074 14.515Z" fill="#090129"/>
<path d="M68.4092 16.2958C68.2656 15.2995 67.7407 14.4143 66.9094 13.8412C66.0888 13.2768 65.0539 13.2276 64.1026 13.373C63.1513 13.5205 62.2128 13.9674 61.4479 14.5426C60.6616 15.1327 60.0017 15.8233 59.3804 16.5802C58.8062 17.2794 58.2598 18.0021 57.6256 18.6499C57.4692 18.8103 57.3085 18.9642 57.1435 19.1117C57.06 19.1866 56.9743 19.2593 56.8886 19.3298C56.8671 19.3469 56.8478 19.364 56.8264 19.379C56.8628 19.3512 56.895 19.3256 56.8886 19.332C56.8693 19.3555 56.8371 19.3726 56.8093 19.3918C56.7943 19.4025 56.7814 19.4154 56.7664 19.4261C56.7193 19.4645 56.76 19.4303 56.8093 19.3918C56.8028 19.3961 56.7964 19.4004 56.7921 19.4025C56.5393 19.5864 56.2694 19.7446 55.9908 19.8858C55.8751 19.9435 55.7573 19.9969 55.6394 20.0482C55.1681 20.2364 54.6796 20.3775 54.1803 20.4566C53.9211 20.4823 53.6597 20.4866 53.3983 20.4609C53.2698 20.4353 53.1455 20.401 53.0212 20.3583C52.9591 20.3283 52.8991 20.2941 52.8412 20.2578C52.8262 20.2471 52.8112 20.2385 52.7962 20.2278C52.7705 20.2022 52.747 20.1787 52.7427 20.1744C52.7148 20.1466 52.687 20.1167 52.6613 20.0867C52.6763 20.1081 52.6913 20.1295 52.7084 20.1594C52.6913 20.1316 52.672 20.106 52.6527 20.0803C52.6527 20.0803 52.6527 20.0782 52.6506 20.0782C52.6398 20.0654 52.627 20.0525 52.6163 20.0397C52.567 19.982 52.5327 19.9029 52.6356 20.0504C52.5884 19.9756 52.5456 19.8964 52.507 19.8173C52.5049 19.8131 52.5049 19.8088 52.5027 19.8045C52.5027 19.8045 52.5027 19.8045 52.5027 19.8024C52.5306 19.719 52.5606 19.6356 52.5841 19.5501C52.882 18.5024 52.9548 17.367 52.8005 16.2915C52.657 15.2952 52.132 14.41 51.3007 13.837C50.4801 13.2725 49.4453 13.2233 48.494 13.3687C47.5427 13.5163 46.6042 13.9631 45.8393 14.5383C45.053 15.1284 44.3931 15.819 43.7717 16.5759C43.1975 17.2751 42.6512 17.9978 42.017 18.6456C41.8606 18.806 41.6999 18.9599 41.5349 19.1075C41.4513 19.1823 41.3656 19.255 41.2799 19.3256C41.2606 19.3427 41.2392 19.3576 41.2178 19.3747C41.2542 19.3469 41.2864 19.3213 41.2799 19.3277C41.2606 19.3512 41.2285 19.3683 41.2006 19.3876C41.1856 19.3983 41.1728 19.4111 41.1578 19.4218C41.1107 19.4603 41.1514 19.4261 41.2006 19.3876C41.1942 19.3918 41.1878 19.3961 41.1835 19.3983C40.9307 19.5821 40.6607 19.7404 40.3822 19.8815C40.2665 19.9392 40.1486 19.9927 40.0308 20.044C39.5594 20.2321 39.0709 20.3732 38.5717 20.4524C38.3125 20.478 38.0511 20.4823 37.7897 20.4566C37.6611 20.431 37.5369 20.3968 37.4126 20.354C37.3505 20.3241 37.2905 20.2899 37.2326 20.2535C37.2176 20.2428 37.2026 20.2343 37.1876 20.2236C37.1619 20.1979 37.1383 20.1744 37.1341 20.1701C37.1062 20.1423 37.0783 20.1124 37.0526 20.0825C37.0676 20.1038 37.0826 20.1252 37.0998 20.1552C37.0826 20.1274 37.0633 20.1017 37.0441 20.076C37.0441 20.076 37.0441 20.0739 37.0419 20.0739C37.0312 20.0611 37.0184 20.0482 37.0076 20.0354C36.9584 19.9777 36.9241 19.8986 37.0269 20.0461C36.9884 19.9862 36.9519 19.9242 36.9198 19.8601C36.8727 19.7297 36.8362 19.595 36.8084 19.4581C36.7977 19.2764 36.8041 19.0968 36.8212 18.915C36.8877 18.5002 36.9926 18.094 37.0676 17.6813C37.1833 17.0506 37.2176 16.4754 37.1148 15.8404C37.0976 15.7292 37.0398 15.6159 36.9626 15.5111C36.8962 15.4085 36.8105 15.3208 36.7055 15.246C36.6713 15.2203 36.637 15.1968 36.6048 15.1776C36.367 15.0386 36.0156 14.9787 35.7478 15.0664C35.7135 15.0771 35.6814 15.0942 35.6471 15.107C35.4136 15.1861 35.2057 15.3379 35.0836 15.5774C34.668 16.3835 34.2394 17.1853 33.7466 17.9465C33.6181 18.1453 33.4853 18.342 33.3481 18.5344C33.2838 18.6243 33.2196 18.7098 33.1532 18.7974C33.1167 18.8423 33.0803 18.8872 33.0439 18.9321C32.7589 19.2764 32.4504 19.6057 32.1076 19.8943C32.0754 19.9221 32.0369 19.9499 32.0026 19.9777C31.9105 20.044 31.8162 20.1081 31.7198 20.1658C31.6126 20.23 31.5012 20.2899 31.3898 20.3433C30.9527 20.5037 30.4835 20.5871 30.0229 20.6533C28.8894 20.8009 27.7453 20.8586 26.6033 20.8928C25.2728 20.9334 23.9401 20.9334 22.6096 20.9163C20.5184 20.8885 18.4315 20.7816 16.3404 20.6961C16.1411 20.6875 15.9376 20.6875 15.7362 20.6769V20.6747H15.7298C15.7191 20.6298 15.7105 20.5849 15.7019 20.54C15.6698 20.2685 15.6483 19.9969 15.6355 19.7233C15.6226 19.4132 15.6205 19.1032 15.6226 18.791C15.6248 18.481 15.6312 18.171 15.6376 17.8609C15.6398 17.7776 15.6398 17.6942 15.6419 17.6108C15.6698 15.5496 15.7169 13.4885 15.7405 11.4273C15.7619 9.65906 15.7705 7.89083 15.7726 6.12045C15.7726 5.54102 15.2605 4.98297 14.6606 5.01076C14.0586 5.03856 13.5486 5.49826 13.5486 6.12045C13.5486 8.51088 13.5293 10.9013 13.4908 13.2939C13.4672 14.8162 13.4308 16.3386 13.4136 17.8609C13.4051 18.7012 13.3837 19.5479 13.4608 20.3861C13.5229 21.0703 13.63 21.7224 14.0864 22.2634C14.4571 22.7017 15.0099 22.8321 15.5541 22.8813C16.0769 22.9283 16.6104 22.9283 17.1353 22.954C18.7315 23.0352 20.3299 23.0908 21.9282 23.1207C23.7751 23.155 25.6242 23.1592 27.4689 23.0758C28.2595 23.0395 29.048 22.9882 29.8343 22.8941C30.5071 22.8129 31.197 22.7295 31.8462 22.5263C32.7675 22.2356 33.5602 21.6433 34.218 20.9484C34.4023 20.756 34.5758 20.5528 34.7429 20.3476C34.8951 20.8415 35.15 21.3012 35.51 21.6861C36.4591 22.6953 37.9032 22.7979 39.1909 22.5905C39.7094 22.5071 40.2151 22.3532 40.6993 22.1543C41.2264 21.9384 41.7449 21.701 42.2141 21.3782C43.3582 20.5892 44.2217 19.5287 45.0873 18.4575C45.5436 17.893 46.0064 17.3307 46.5357 16.8304C46.6706 16.7042 46.8078 16.5802 46.9513 16.4626C46.9706 16.4476 46.9899 16.4327 47.007 16.4177C47.0734 16.3685 47.142 16.3193 47.2106 16.2723C47.4848 16.0863 47.7762 15.9238 48.0783 15.7848C48.389 15.6629 48.7082 15.571 49.0382 15.5154C49.2096 15.5004 49.3831 15.4983 49.5545 15.509C49.6938 15.5347 49.8309 15.571 49.9638 15.6202C50.0259 15.6522 50.0859 15.6865 50.1437 15.7249C50.1823 15.7592 50.223 15.7934 50.2594 15.8319C50.2873 15.8596 50.3109 15.8896 50.3366 15.9195C50.343 15.9281 50.3473 15.9366 50.3537 15.9452C50.4051 16.0243 50.4501 16.1077 50.4908 16.1932C50.5508 16.36 50.5958 16.531 50.628 16.7063C50.6794 17.1981 50.6601 17.6984 50.6044 18.1881C50.538 18.6136 50.4308 19.0326 50.2766 19.4367C50.2102 19.5821 50.1373 19.7233 50.0537 19.8601C50.0109 19.9285 49.9638 19.9948 49.9188 20.0632C49.8931 20.0932 49.8652 20.1252 49.8395 20.1552C49.7795 20.2214 49.7152 20.2834 49.651 20.3433C49.7217 20.2856 49.6509 20.3583 49.5931 20.3968C49.5888 20.3989 49.5845 20.401 49.5802 20.4053C49.5588 20.4224 49.5374 20.4395 49.5181 20.4588C49.5395 20.4395 49.5567 20.4246 49.5738 20.4096C49.4774 20.4759 49.3746 20.5315 49.2717 20.5828C49.126 20.6341 48.9782 20.6747 48.8261 20.7025C48.7018 20.7111 48.5775 20.7111 48.4533 20.7025C48.2883 20.6726 48.1276 20.6298 47.9712 20.5721C47.894 20.5336 47.8169 20.4908 47.7441 20.4438C47.7312 20.4353 47.7119 20.4224 47.6905 20.4075C47.6562 20.3775 47.6155 20.3433 47.6005 20.3283C47.5512 20.2813 47.5041 20.2321 47.4591 20.183C47.457 20.1808 47.4548 20.1787 47.4527 20.1765C47.3713 20.0482 47.2963 19.9221 47.2341 19.7831C47.127 19.5458 46.8099 19.3405 46.5699 19.2742C46.3043 19.2015 45.9486 19.2336 45.7129 19.3854C45.4751 19.5372 45.2673 19.766 45.203 20.0482C45.1323 20.3561 45.1858 20.617 45.3144 20.9035C46.1993 22.8684 48.9225 23.5077 50.6772 22.3382C50.8979 22.1907 51.0993 22.0217 51.2836 21.84C51.3072 21.8592 51.3286 21.8828 51.3522 21.902C51.7978 22.2569 52.3056 22.5199 52.8734 22.6161C53.9404 22.7979 55.0331 22.6397 56.0444 22.2676C57.0878 21.8828 57.9963 21.3482 58.8169 20.5956C59.6632 19.8195 60.3424 18.8915 61.0709 18.0127C61.4737 17.5274 61.8957 17.0549 62.3714 16.6358C62.4271 16.5866 62.485 16.5374 62.5428 16.4883C62.5599 16.4733 62.5771 16.4583 62.5964 16.4455C62.7121 16.36 62.8299 16.2744 62.952 16.1975C63.1984 16.0393 63.4577 15.9045 63.7234 15.7827C64.0233 15.6672 64.334 15.5796 64.6511 15.524C64.8225 15.509 64.996 15.5069 65.1674 15.5175C65.3067 15.5432 65.4438 15.5796 65.5767 15.6287C65.6388 15.6608 65.6988 15.695 65.7567 15.7335C65.7952 15.7677 65.8359 15.8019 65.8724 15.8404C65.9002 15.8682 65.9238 15.8981 65.9495 15.9281C65.9559 15.9366 65.9602 15.9452 65.9666 15.9537C66.0181 16.0328 66.063 16.1162 66.1038 16.2017C66.1637 16.3685 66.2087 16.5396 66.2409 16.7128C66.2923 17.2045 66.273 17.7049 66.2173 18.1945C66.1509 18.62 66.0438 19.039 65.8895 19.4432C65.8231 19.5885 65.7502 19.7297 65.6667 19.8665C65.6238 19.9349 65.5767 20.0012 65.5317 20.0696C65.506 20.0996 65.4781 20.1316 65.4524 20.1616C65.3924 20.2279 65.3281 20.2899 65.2639 20.3497C65.3346 20.292 65.2639 20.3647 65.206 20.4032C65.2017 20.4053 65.1974 20.4075 65.1932 20.4117C65.1717 20.4288 65.1503 20.4459 65.131 20.4652C65.1525 20.4459 65.1696 20.431 65.1867 20.416C65.0903 20.4823 64.9875 20.5379 64.8846 20.5892C64.7389 20.6405 64.5911 20.6811 64.439 20.7089C64.3147 20.7175 64.1904 20.7175 64.0662 20.7089C63.9012 20.679 63.7405 20.6362 63.5841 20.5785C63.507 20.54 63.4298 20.4973 63.357 20.4502C63.3441 20.4417 63.3248 20.4288 63.3034 20.4139C63.2691 20.3839 63.2284 20.3497 63.2134 20.3348C63.1641 20.2877 63.117 20.2385 63.072 20.1894C63.0699 20.1872 63.0677 20.1851 63.0656 20.183C62.9842 20.0547 62.9092 19.9285 62.847 19.7895C62.7399 19.5522 62.4228 19.3469 62.1828 19.2807C61.9172 19.208 61.5615 19.24 61.3258 19.3918C61.088 19.5436 60.8802 19.7724 60.8159 20.0547C60.7452 20.3626 60.7987 20.6234 60.9273 20.9099C61.8122 22.8749 64.5354 23.5142 66.2902 22.3446C67.2672 21.6925 67.8842 20.6683 68.1992 19.5543C68.4906 18.5088 68.5634 17.3734 68.4092 16.2958ZM37.1983 20.2535C37.239 20.2834 37.2797 20.3112 37.2755 20.3134C37.269 20.3177 37.2348 20.2877 37.1983 20.2535ZM52.8134 20.2535C52.8541 20.2834 52.8948 20.3112 52.8905 20.3134C52.8841 20.3177 52.8477 20.2877 52.8134 20.2535Z" fill="#090129"/>
<path d="M65.244 20.3624C65.2482 20.3582 65.2525 20.3539 65.2568 20.3496C65.2397 20.3624 65.214 20.386 65.1797 20.4159C65.1818 20.4138 65.184 20.4138 65.1861 20.4116C65.2054 20.3945 65.2247 20.3795 65.244 20.3624Z" fill="#090129"/>
<path d="M52.6585 20.0932C52.65 20.0782 52.6414 20.0654 52.6328 20.0547C52.6392 20.0632 52.6435 20.0739 52.65 20.0825C52.6542 20.0868 52.6564 20.0889 52.6585 20.0932Z" fill="#090129"/>
<path d="M56.8252 19.3828C56.819 19.387 56.8148 19.3911 56.8086 19.3952C56.8148 19.3911 56.821 19.387 56.8252 19.3828Z" fill="#090129"/>
<path d="M8.74075 11.3587C9.62231 11.3587 10.337 10.6455 10.337 9.76576C10.337 8.88602 9.62231 8.17285 8.74075 8.17285C7.85918 8.17285 7.14453 8.88602 7.14453 9.76576C7.14453 10.6455 7.85918 11.3587 8.74075 11.3587Z" fill="#090129"/>
<path d="M22.5647 12.706C22.7019 12.706 22.8326 12.6867 22.9568 12.6547L22.9633 12.6739C22.9633 12.6739 25.9179 12.4751 27.6362 12.706V12.7017C27.6705 12.7038 27.7026 12.706 27.7369 12.706C28.4375 12.706 29.0032 12.1394 29.0032 11.4423C29.0032 10.7432 28.4354 10.1787 27.7369 10.1787C27.6298 10.1787 27.5248 10.1937 27.4262 10.2193C26.8263 10.2535 24.2488 10.384 22.6697 10.1787V10.183C22.6354 10.1808 22.599 10.1787 22.5647 10.1787C21.7956 10.1787 21.1699 10.7453 21.1699 11.4423C21.1699 12.1415 21.7956 12.706 22.5647 12.706Z" fill="#090129"/>
</svg>
