<svg width="14" height="14" viewBox="0 0 14 14" fill="none" xmlns="http://www.w3.org/2000/svg">
<g id="message-question-circle">
<path id="Icon" d="M7.87579 5.2513C7.77301 4.95913 7.57014 4.71275 7.30311 4.55582C7.03608 4.39888 6.72213 4.34152 6.41686 4.39388C6.11159 4.44624 5.8347 4.60495 5.63524 4.8419C5.43577 5.07885 5.3266 5.37875 5.32706 5.68848C5.32706 6.56283 6.63859 7 6.63859 7M6.62168 8.75H6.61585M6.70912 11.6667C3.97071 11.6667 1.75079 9.44675 1.75079 6.70833C1.75079 3.96992 3.97071 1.75 6.70912 1.75C9.44753 1.75 11.6675 3.96992 11.6675 6.70833C11.6675 7.2625 11.5765 7.79543 11.4088 8.29302C11.3457 8.48028 11.3141 8.57391 11.3085 8.64583C11.3028 8.71687 11.3071 8.76667 11.3247 8.83572C11.3425 8.90565 11.3817 8.97837 11.4603 9.12381L12.4145 10.8899C12.5505 11.1418 12.6186 11.2677 12.6034 11.365C12.5901 11.4496 12.5403 11.5242 12.4671 11.5688C12.3831 11.62 12.2407 11.6053 11.9559 11.5759L8.96863 11.2671C8.87816 11.2577 8.83293 11.2531 8.7917 11.2546C8.75115 11.2562 8.72253 11.26 8.68299 11.2691C8.64278 11.2784 8.59223 11.2979 8.49111 11.3368C7.93808 11.5499 7.33724 11.6667 6.70912 11.6667Z" stroke="#5A5570" stroke-width="1.16667" stroke-linecap="round" stroke-linejoin="round"/>
</g>
</svg>
