<svg width="24" height="32" viewBox="0 0 24 32" fill="none" xmlns="http://www.w3.org/2000/svg">
<g id="Logo">
<g id="Group 2">
<g id="Group">
<g id="Group_2">
<path id="Vector" d="M20.1543 9.92733C19.9536 8.85697 19.7456 7.75074 19.6027 6.50467C19.5485 6.02597 19.1145 5.68173 18.6316 5.73552C18.1487 5.7893 17.8015 6.22139 17.8558 6.69831C18.0041 8.00533 18.2175 9.14383 18.4254 10.2447C18.7473 11.9605 19.053 13.5813 19.0439 15.575C19.0331 18.1281 18.8179 21.0344 17.3114 23.2217C15.9008 25.271 13.0001 26.2589 10.3127 26.2589C9.24937 26.2589 8.21856 26.1047 7.3288 25.7981C6.39384 25.4772 5.65057 24.9214 5.23462 24.2329C5.09718 24.007 4.99048 23.7614 4.9073 23.4853C4.76081 22.9976 4.70836 22.4741 4.68485 21.9219C5.49866 22.5422 6.4933 22.7968 7.43008 22.6211C9.88956 22.1567 11.3833 19.8116 11.3291 16.5001C11.2766 13.307 9.72138 9.67991 6.9436 9.24961C6.80978 9.2281 5.60897 9.07211 4.51847 9.94885C3.56723 10.7144 3.03917 11.9874 2.94874 13.7337C2.92343 14.2142 3.29778 14.6247 3.78244 14.6481C4.2671 14.6732 4.68124 14.302 4.70475 13.8215C4.76624 12.6239 5.07729 11.7579 5.60535 11.3186C6.09906 10.9063 6.65968 10.9708 6.67053 10.9708C8.19686 11.2075 9.52607 13.7534 9.57128 16.5288C9.58575 17.445 9.45192 20.466 7.10094 20.9089C6.64883 20.9949 6.1298 20.8443 5.71205 20.5073C5.02665 19.9551 4.62156 18.9331 4.56369 17.6171C4.56188 17.5508 4.56007 17.4826 4.55826 17.4163C4.54379 16.9376 4.1387 16.5557 3.65766 16.5718C3.1748 16.5826 2.79141 16.9788 2.80045 17.4593C2.80226 17.5382 2.80407 17.6153 2.80769 17.6924C2.81854 18.0241 2.82939 18.354 2.84024 18.6857C2.86194 19.3186 2.88183 19.9515 2.89811 20.5844C2.90353 20.7619 2.90534 20.9412 2.90715 21.1204C2.91981 22.0581 2.93428 23.0281 3.22182 23.9855C3.22182 23.9855 3.22182 23.9855 3.22182 23.9873C3.3466 24.405 3.51117 24.7798 3.72457 25.1312C4.3521 26.1711 5.42813 26.994 6.75372 27.4476C7.82432 27.8152 9.04321 28.0016 10.3001 27.9998C13.5282 27.9998 16.9968 26.7681 18.7618 24.206C20.5359 21.6296 20.7873 18.4024 20.7999 15.5839C20.8126 13.4253 20.4925 11.7274 20.1543 9.92733Z" fill="#090129"/>
</g>
<g id="Group_3">
<path id="Vector_2" d="M12.4574 16.8158C12.4067 17.2945 12.7576 17.723 13.2404 17.7732C13.2711 17.7768 13.3019 17.7786 13.3326 17.7786C13.7775 17.7786 14.1591 17.4451 14.2061 16.9987C14.9331 10.1175 9.30522 2.65905 9.0647 2.34529C8.77173 1.96161 8.22016 1.88631 7.83315 2.17676C7.44614 2.46721 7.37019 3.01405 7.66315 3.39773C7.71741 3.46765 13.112 10.6249 12.4574 16.8158Z" fill="#090129"/>
</g>
<g id="Group_4">
<path id="Vector_3" d="M15.6352 16.6726C15.6044 17.1531 15.9715 17.5672 16.4562 17.5977C16.4743 17.5995 16.4942 17.5995 16.5123 17.5995C16.9716 17.5995 17.3586 17.2445 17.3894 16.7837C17.7185 11.6381 14.9552 4.66906 14.8377 4.37503C14.6586 3.9268 14.1468 3.70807 13.6965 3.88736C13.2444 4.06485 13.0238 4.57225 13.2028 5.01868C13.2317 5.08681 15.939 11.9214 15.6352 16.6726Z" fill="#090129"/>
</g>
</g>
<g id="Group_5">
<g id="Group_6">
<path id="Vector_4" d="M18.3412 29.2517C17.9695 28.8802 17.7827 28.4306 17.7827 27.905C17.7827 27.3794 17.9695 26.9298 18.3412 26.5583C18.713 26.1867 19.1627 26 19.6886 26C20.2145 26 20.6642 26.1867 21.036 26.5583C21.4077 26.9298 21.5945 27.3794 21.5945 27.905C21.5945 28.4306 21.4077 28.8802 21.036 29.2517C20.6642 29.6233 20.2145 29.81 19.6886 29.81C19.1627 29.81 18.713 29.6233 18.3412 29.2517ZM18.5462 26.7522C18.2343 27.0676 18.0783 27.4519 18.0783 27.905C18.0783 28.3581 18.2361 28.7424 18.5498 29.0596C18.8635 29.3768 19.2443 29.5363 19.6904 29.5363C20.1365 29.5363 20.5155 29.3768 20.831 29.0596C21.1448 28.7424 21.3025 28.3563 21.3025 27.905C21.3025 27.4519 21.1448 27.0676 20.831 26.7504C20.5173 26.4332 20.1365 26.2737 19.6904 26.2737C19.2425 26.2737 18.8617 26.4332 18.5462 26.7522ZM20.1528 27.9666L20.637 28.6191C20.6624 28.6608 20.6733 28.7025 20.6733 28.7406C20.6733 28.8004 20.6533 28.8512 20.6134 28.891C20.5735 28.9309 20.5228 28.9508 20.4629 28.9508C20.3886 28.9508 20.3269 28.9128 20.2743 28.8348L19.6215 27.8506C19.607 27.8289 19.5997 27.8144 19.5997 27.8035C19.5997 27.7654 19.6197 27.7455 19.6578 27.7455H19.7466C19.8409 27.7455 19.9189 27.7237 19.9806 27.6821C20.0422 27.6404 20.073 27.5751 20.073 27.4881C20.073 27.305 19.9661 27.2144 19.7521 27.2144H19.52V28.7352C19.52 28.795 19.4982 28.8457 19.4565 28.8874C19.4148 28.9291 19.364 28.9508 19.3042 28.9508C19.2443 28.9508 19.1935 28.9291 19.1518 28.8874C19.1101 28.8457 19.0884 28.795 19.0884 28.7352V27.0513C19.0884 27.006 19.1047 26.9679 19.1355 26.9353C19.1663 26.9045 19.2062 26.8882 19.2516 26.8882H19.7575C19.9715 26.8882 20.1456 26.9407 20.278 27.0458C20.4121 27.151 20.4774 27.2978 20.4774 27.4881C20.4792 27.731 20.3704 27.8905 20.1528 27.9666Z" fill="#090129"/>
</g>
</g>
</g>
</g>
</svg>
