<svg width="56" height="56" viewBox="0 0 56 56" fill="none" xmlns="http://www.w3.org/2000/svg">
<path d="M1.06494 16.8442C2.41339 8.75346 8.75346 2.41339 16.8442 1.06494L18.5325 0.783557C24.8009 -0.261185 31.1991 -0.261186 37.4675 0.783556L39.1558 1.06494C47.2465 2.41339 53.5866 8.75346 54.9351 16.8442L55.2164 18.5325C56.2612 24.8009 56.2612 31.1991 55.2164 37.4675L54.9351 39.1558C53.5866 47.2465 47.2465 53.5866 39.1558 54.9351L37.4675 55.2164C31.1991 56.2612 24.8009 56.2612 18.5325 55.2164L16.8442 54.9351C8.75346 53.5866 2.41339 47.2465 1.06494 39.1558L0.783557 37.4675C-0.261185 31.1991 -0.261186 24.8009 0.783556 18.5325L1.06494 16.8442Z" fill="#D1B6F1"/>
<path opacity="0.2" d="M37.7326 22.56V29.4267C37.7326 33.5333 35.386 35.2933 31.866 35.2933H20.146C19.546 35.2933 18.9726 35.24 18.4393 35.12C18.106 35.0667 17.786 34.9734 17.4926 34.8667C15.4926 34.12 14.2793 32.3867 14.2793 29.4267V22.56C14.2793 18.4533 16.626 16.6934 20.146 16.6934H31.866C34.8526 16.6934 36.9993 17.96 37.5726 20.8534C37.666 21.3867 37.7326 21.9333 37.7326 22.56Z" fill="#090129"/>
<path d="M41.7328 26.5601V33.4268C41.7328 37.5335 39.3861 39.2935 35.8661 39.2935H24.1461C23.1595 39.2935 22.2661 39.1602 21.4928 38.8669C19.9061 38.2802 18.8261 37.0669 18.4395 35.1202C18.9728 35.2402 19.5461 35.2935 20.1461 35.2935H31.8661C35.3861 35.2935 37.7328 33.5335 37.7328 29.4268V22.5601C37.7328 21.9335 37.6795 21.3735 37.5728 20.8535C40.1061 21.3868 41.7328 23.1735 41.7328 26.5601Z" fill="#090129"/>
<path d="M26.0005 29.5205C27.9445 29.5205 29.5205 27.9445 29.5205 26.0005C29.5205 24.0564 27.9445 22.4805 26.0005 22.4805C24.0564 22.4805 22.4805 24.0564 22.4805 26.0005C22.4805 27.9445 24.0564 29.5205 26.0005 29.5205Z" fill="#090129"/>
<path d="M18.373 23C17.8264 23 17.373 23.4533 17.373 24V28C17.373 28.5467 17.8264 29 18.373 29C18.9197 29 19.373 28.5467 19.373 28V24C19.373 23.4533 18.933 23 18.373 23Z" fill="#090129"/>
<path d="M33.6133 23C33.0666 23 32.6133 23.4533 32.6133 24V28C32.6133 28.5467 33.0666 29 33.6133 29C34.1599 29 34.6133 28.5467 34.6133 28V24C34.6133 23.4533 34.1733 23 33.6133 23Z" fill="#090129"/>
</svg>
