<svg width="56" height="56" viewBox="0 0 56 56" fill="none" xmlns="http://www.w3.org/2000/svg">
<path d="M1.06494 16.8442C2.41339 8.75346 8.75346 2.41339 16.8442 1.06494L18.5325 0.783557C24.8009 -0.261185 31.1991 -0.261186 37.4675 0.783556L39.1558 1.06494C47.2465 2.41339 53.5866 8.75346 54.9351 16.8442L55.2164 18.5325C56.2612 24.8009 56.2612 31.1991 55.2164 37.4675L54.9351 39.1558C53.5866 47.2465 47.2465 53.5866 39.1558 54.9351L37.4675 55.2164C31.1991 56.2612 24.8009 56.2612 18.5325 55.2164L16.8442 54.9351C8.75346 53.5866 2.41339 47.2465 1.06494 39.1558L0.783557 37.4675C-0.261185 31.1991 -0.261186 24.8009 0.783556 18.5325L1.06494 16.8442Z" fill="#D1B6F1"/>
<path d="M34.3343 16.747V14.667C34.3343 14.1203 33.8809 13.667 33.3343 13.667C32.7876 13.667 32.3343 14.1203 32.3343 14.667V16.667H23.6676V14.667C23.6676 14.1203 23.2143 13.667 22.6676 13.667C22.1209 13.667 21.6676 14.1203 21.6676 14.667V16.747C18.0676 17.0803 16.321 19.227 16.0543 22.4137C16.0276 22.8003 16.3476 23.1203 16.721 23.1203H39.2809C39.6676 23.1203 39.9876 22.787 39.9476 22.4137C39.6809 19.227 37.9343 17.0803 34.3343 16.747Z" fill="#090129"/>
<path opacity="0.2" d="M38.6667 25.1201C39.4 25.1201 40 25.7201 40 26.4535V34.6668C40 38.6668 38 41.3335 33.3333 41.3335H22.6667C18 41.3335 16 38.6668 16 34.6668V26.4535C16 25.7201 16.6 25.1201 17.3333 25.1201H38.6667Z" fill="#090129"/>
<path d="M31.7872 31.9866L31.1206 32.6666H31.1072L27.0672 36.7066C26.8939 36.8799 26.5339 37.0666 26.2806 37.0933L24.4806 37.3599C23.8272 37.4532 23.3739 36.9866 23.4673 36.3466L23.7206 34.5332C23.7606 34.2799 23.9339 33.9332 24.1072 33.7466L28.1606 29.7066L28.8272 29.0266C29.2672 28.5866 29.7606 28.2666 30.2939 28.2666C30.7472 28.2666 31.2406 28.4799 31.7872 29.0266C32.9872 30.2266 32.6006 31.1732 31.7872 31.9866Z" fill="#090129"/>
</svg>
