<svg width="56" height="56" viewBox="0 0 56 56" fill="none" xmlns="http://www.w3.org/2000/svg">
<path d="M1.06494 16.8442C2.41339 8.75346 8.75346 2.41339 16.8442 1.06494L18.5325 0.783557C24.8009 -0.261185 31.1991 -0.261186 37.4675 0.783556L39.1558 1.06494C47.2465 2.41339 53.5866 8.75346 54.9351 16.8442L55.2164 18.5325C56.2612 24.8009 56.2612 31.1991 55.2164 37.4675L54.9351 39.1558C53.5866 47.2465 47.2465 53.5866 39.1558 54.9351L37.4675 55.2164C31.1991 56.2612 24.8009 56.2612 18.5325 55.2164L16.8442 54.9351C8.75346 53.5866 2.41339 47.2465 1.06494 39.1558L0.783557 37.4675C-0.261185 31.1991 -0.261186 24.8009 0.783556 18.5325L1.06494 16.8442Z" fill="#D1B6F1"/>
<path opacity="0.2" d="M35.9335 22.2805L35.7468 22.1738L33.8935 21.1071L30.0668 18.8938C28.8935 18.2138 27.1068 18.2138 25.9335 18.8938L22.1068 21.1071L20.2535 22.1871L20.0135 22.3205C17.6268 23.9205 17.4668 24.2138 17.4668 26.7871V32.9338C17.4668 35.5071 17.6268 35.8005 20.0668 37.4405L25.9335 40.8271C26.5201 41.1738 27.2535 41.3338 28.0001 41.3338C28.7335 41.3338 29.4801 41.1738 30.0668 40.8271L35.9868 37.4005C38.3735 35.8005 38.5335 35.5071 38.5335 32.9338V26.7871C38.5335 24.2138 38.3735 23.9205 35.9335 22.2805Z" fill="#090129"/>
<path d="M20.2539 22.187L22.1072 21.107L25.7606 19.0003L25.9339 18.8937C27.1072 18.2137 28.8939 18.2137 30.0672 18.8937L30.2406 19.0003L33.8939 21.107L35.7472 22.1737V19.3203C35.7472 16.3203 34.0939 14.667 31.0939 14.667H24.8939C21.8939 14.667 20.2539 16.3203 20.2539 19.3203V22.187Z" fill="#090129"/>
<path d="M31.7876 29.787L30.961 30.8004C30.8276 30.947 30.7343 31.2404 30.7476 31.4404L30.8276 32.747C30.881 33.547 30.3076 33.9604 29.561 33.667L28.3476 33.187C28.161 33.1204 27.841 33.1204 27.6543 33.187L26.441 33.667C25.6943 33.9604 25.121 33.547 25.1743 32.747L25.2543 31.4404C25.2676 31.2404 25.1743 30.947 25.041 30.8004L24.2143 29.787C23.6943 29.1737 23.921 28.4937 24.6943 28.2937L25.961 27.9737C26.161 27.9204 26.401 27.7337 26.5076 27.5604L27.2143 26.467C27.6543 25.787 28.3476 25.787 28.7876 26.467L29.4943 27.5604C29.601 27.7337 29.841 27.9204 30.041 27.9737L31.3076 28.2937C32.081 28.4937 32.3076 29.1737 31.7876 29.787Z" fill="#090129"/>
</svg>
