<svg width="56" height="56" viewBox="0 0 56 56" fill="none" xmlns="http://www.w3.org/2000/svg">
<path d="M1.06494 16.8442C2.41339 8.75346 8.75346 2.41339 16.8442 1.06494L18.5325 0.783557C24.8009 -0.261185 31.1991 -0.261186 37.4675 0.783556L39.1558 1.06494C47.2465 2.41339 53.5866 8.75346 54.9351 16.8442L55.2164 18.5325C56.2612 24.8009 56.2612 31.1991 55.2164 37.4675L54.9351 39.1558C53.5866 47.2465 47.2465 53.5866 39.1558 54.9351L37.4675 55.2164C31.1991 56.2612 24.8009 56.2612 18.5325 55.2164L16.8442 54.9351C8.75346 53.5866 2.41339 47.2465 1.06494 39.1558L0.783557 37.4675C-0.261185 31.1991 -0.261186 24.8009 0.783556 18.5325L1.06494 16.8442Z" fill="#D1B6F1"/>
<path opacity="0.2" d="M35.3734 22.3603C35.28 22.347 35.1867 22.347 35.0934 22.3603C33.0267 22.2937 31.3867 20.6003 31.3867 18.5203C31.3867 16.4003 33.1067 14.667 35.2401 14.667C37.3601 14.667 39.0934 16.387 39.0934 18.5203C39.0801 20.6003 37.44 22.2937 35.3734 22.3603Z" fill="#090129"/>
<path opacity="0.2" d="M39.7195 31.5995C38.2261 32.5995 36.1328 32.9729 34.1995 32.7195C34.7061 31.6262 34.9728 30.4129 34.9862 29.1329C34.9862 27.7996 34.6928 26.5329 34.1328 25.4262C36.1061 25.1596 38.1995 25.5329 39.7061 26.5329C41.8128 27.9195 41.8128 30.1995 39.7195 31.5995Z" fill="#090129"/>
<path opacity="0.2" d="M20.5872 22.3603C20.6805 22.347 20.7739 22.347 20.8672 22.3603C22.9339 22.2937 24.5739 20.6003 24.5739 18.5203C24.5739 16.4003 22.8539 14.667 20.7205 14.667C18.6005 14.667 16.8672 16.387 16.8672 18.5203C16.8805 20.6003 18.5205 22.2937 20.5872 22.3603Z" fill="#090129"/>
<path opacity="0.2" d="M20.7335 29.1332C20.7335 30.4265 21.0135 31.6532 21.5202 32.7598C19.6402 32.9598 17.6802 32.5598 16.2402 31.6132C14.1335 30.2132 14.1335 27.9331 16.2402 26.5331C17.6668 25.5731 19.6802 25.1865 21.5735 25.3998C21.0268 26.5198 20.7335 27.7865 20.7335 29.1332Z" fill="#292D32"/>
<path d="M28.1604 33.16C28.0537 33.1467 27.9337 33.1467 27.8137 33.16C25.3604 33.08 23.4004 31.0667 23.4004 28.5867C23.4004 26.0533 25.4404 24 27.9871 24C30.5204 24 32.5737 26.0533 32.5737 28.5867C32.5737 31.0667 30.6271 33.08 28.1604 33.16Z" fill="#292D32"/>
<path d="M23.8264 35.9195C21.8131 37.2662 21.8131 39.4795 23.8264 40.8129C26.1197 42.3462 29.8797 42.3462 32.1731 40.8129C34.1864 39.4662 34.1864 37.2529 32.1731 35.9195C29.8931 34.3862 26.1331 34.3862 23.8264 35.9195Z" fill="#292D32"/>
</svg>
