<svg width="24" height="24" viewBox="0 0 24 24" fill="none" xmlns="http://www.w3.org/2000/svg">
<g id="vuesax/outline/setting-4">
<g id="setting-4">
<g id="Vector">
<mask id="path-1-inside-1_3305_23350" fill="white">
<path d="M22 7.25H16C15.59 7.25 15.25 6.91 15.25 6.5C15.25 6.09 15.59 5.75 16 5.75H22C22.41 5.75 22.75 6.09 22.75 6.5C22.75 6.91 22.41 7.25 22 7.25Z"/>
</mask>
<path d="M22 7.25H16C15.59 7.25 15.25 6.91 15.25 6.5C15.25 6.09 15.59 5.75 16 5.75H22C22.41 5.75 22.75 6.09 22.75 6.5C22.75 6.91 22.41 7.25 22 7.25Z" fill="black"/>
<path d="M22 5.75H16V8.75H22V5.75ZM16 5.75C16.4184 5.75 16.75 6.08157 16.75 6.5H13.75C13.75 7.73843 14.7616 8.75 16 8.75V5.75ZM16.75 6.5C16.75 6.91843 16.4184 7.25 16 7.25V4.25C14.7616 4.25 13.75 5.26157 13.75 6.5H16.75ZM16 7.25H22V4.25H16V7.25ZM22 7.25C21.5816 7.25 21.25 6.91843 21.25 6.5H24.25C24.25 5.26157 23.2384 4.25 22 4.25V7.25ZM21.25 6.5C21.25 6.08157 21.5816 5.75 22 5.75V8.75C23.2384 8.75 24.25 7.73843 24.25 6.5H21.25Z" fill="#111322" mask="url(#path-1-inside-1_3305_23350)"/>
</g>
<g id="Vector_2">
<mask id="path-3-inside-2_3305_23350" fill="white">
<path d="M6 7.25H2C1.59 7.25 1.25 6.91 1.25 6.5C1.25 6.09 1.59 5.75 2 5.75H6C6.41 5.75 6.75 6.09 6.75 6.5C6.75 6.91 6.41 7.25 6 7.25Z"/>
</mask>
<path d="M6 7.25H2C1.59 7.25 1.25 6.91 1.25 6.5C1.25 6.09 1.59 5.75 2 5.75H6C6.41 5.75 6.75 6.09 6.75 6.5C6.75 6.91 6.41 7.25 6 7.25Z" fill="black"/>
<path d="M6 5.75H2V8.75H6V5.75ZM2 5.75C2.41843 5.75 2.75 6.08157 2.75 6.5H-0.25C-0.25 7.73843 0.761573 8.75 2 8.75V5.75ZM2.75 6.5C2.75 6.91843 2.41843 7.25 2 7.25V4.25C0.761573 4.25 -0.25 5.26157 -0.25 6.5H2.75ZM2 7.25H6V4.25H2V7.25ZM6 7.25C5.58157 7.25 5.25 6.91843 5.25 6.5H8.25C8.25 5.26157 7.23843 4.25 6 4.25V7.25ZM5.25 6.5C5.25 6.08157 5.58157 5.75 6 5.75V8.75C7.23843 8.75 8.25 7.73843 8.25 6.5H5.25Z" fill="#111322" mask="url(#path-3-inside-2_3305_23350)"/>
</g>
<path id="Vector_3" d="M10 10.25C7.93614 10.25 6.25 8.56386 6.25 6.5C6.25 4.43614 7.93614 2.75 10 2.75C12.0639 2.75 13.75 4.43614 13.75 6.5C13.75 8.56386 12.0639 10.25 10 10.25ZM10 3.25C8.20386 3.25 6.75 4.70386 6.75 6.5C6.75 8.29614 8.20386 9.75 10 9.75C11.7961 9.75 13.25 8.29614 13.25 6.5C13.25 4.70386 11.7961 3.25 10 3.25Z" fill="black" stroke="black"/>
<path id="Vector_4" d="M22 17.75H18C17.8661 17.75 17.75 17.6339 17.75 17.5C17.75 17.3661 17.8661 17.25 18 17.25H22C22.1339 17.25 22.25 17.3661 22.25 17.5C22.25 17.6339 22.1339 17.75 22 17.75Z" fill="black" stroke="black"/>
<path id="Vector_5" d="M8 18.25H2C1.59 18.25 1.25 17.91 1.25 17.5C1.25 17.09 1.59 16.75 2 16.75H8C8.41 16.75 8.75 17.09 8.75 17.5C8.75 17.91 8.41 18.25 8 18.25Z" fill="#292D32"/>
<path id="Vector_6" d="M14 21.75C11.66 21.75 9.75 19.84 9.75 17.5C9.75 15.16 11.66 13.25 14 13.25C16.34 13.25 18.25 15.16 18.25 17.5C18.25 19.84 16.34 21.75 14 21.75ZM14 14.75C12.48 14.75 11.25 15.98 11.25 17.5C11.25 19.02 12.48 20.25 14 20.25C15.52 20.25 16.75 19.02 16.75 17.5C16.75 15.98 15.52 14.75 14 14.75Z" fill="#292D32"/>
</g>
</g>
</svg>
