<svg width="24" height="24" viewBox="0 0 24 24" fill="none" xmlns="http://www.w3.org/2000/svg">
<g id="R icon">
<g id="vuesax/outline/share">
<g id="share">
<g id="Vector">
<mask id="path-1-inside-1_1864_137047" fill="white">
<path d="M20.6216 13.0703C20.2416 13.0703 19.9216 12.7803 19.8716 12.4003C19.6316 10.1403 18.4116 8.09035 16.5316 6.79035C16.1916 6.55035 16.1116 6.09035 16.3416 5.75035C16.5816 5.41035 17.0516 5.33035 17.3816 5.56035C19.6216 7.11035 21.0616 9.55035 21.3516 12.2403C21.3916 12.6503 21.1016 13.0203 20.6816 13.0703C20.6716 13.0703 20.6416 13.0703 20.6216 13.0703Z"/>
</mask>
<path d="M20.6216 13.0703C20.2416 13.0703 19.9216 12.7803 19.8716 12.4003C19.6316 10.1403 18.4116 8.09035 16.5316 6.79035C16.1916 6.55035 16.1116 6.09035 16.3416 5.75035C16.5816 5.41035 17.0516 5.33035 17.3816 5.56035C19.6216 7.11035 21.0616 9.55035 21.3516 12.2403C21.3916 12.6503 21.1016 13.0203 20.6816 13.0703C20.6716 13.0703 20.6416 13.0703 20.6216 13.0703Z" fill="black"/>
<path d="M19.8716 12.4003L18.38 12.5587L18.382 12.5774L18.3844 12.596L19.8716 12.4003ZM16.5316 6.79035L15.6666 8.0158L15.6725 8.01998L15.6785 8.02411L16.5316 6.79035ZM16.3416 5.75035L15.1161 4.88532L15.1075 4.89752L15.0992 4.90988L16.3416 5.75035ZM17.3816 5.56035L16.5239 6.79095L16.5281 6.79383L17.3816 5.56035ZM21.3516 12.2403L22.8445 12.0947L22.8438 12.0871L22.843 12.0796L21.3516 12.2403ZM20.6816 13.0703V14.5703H20.7706L20.8589 14.5598L20.6816 13.0703ZM20.6216 11.5703C21.0242 11.5703 21.3145 11.8682 21.3588 12.2047L18.3844 12.596C18.5287 13.6924 19.459 14.5703 20.6216 14.5703V11.5703ZM21.3632 12.2419C21.0768 9.54511 19.6219 7.10354 17.3847 5.55659L15.6785 8.02411C17.2013 9.07715 18.1864 10.7356 18.38 12.5587L21.3632 12.2419ZM17.3966 5.56489C17.7298 5.80011 17.8076 6.2603 17.584 6.59081L15.0992 4.90988C14.4156 5.92039 14.6534 7.30058 15.6666 8.0158L17.3966 5.56489ZM17.567 6.61537C17.3366 6.94189 16.8781 7.03781 16.5239 6.79094L18.2393 4.32975C17.2251 3.62288 15.8266 3.8788 15.1161 4.88532L17.567 6.61537ZM16.5281 6.79383C18.4079 8.09459 19.6167 10.1421 19.8602 12.4011L22.843 12.0796C22.5065 8.95859 20.8353 6.1261 18.2351 4.32686L16.5281 6.79383ZM19.8587 12.386C19.8202 11.9916 20.1063 11.6282 20.5043 11.5809L20.8589 14.5598C22.0969 14.4124 22.963 13.3091 22.8445 12.0947L19.8587 12.386ZM20.6816 11.5703C20.6683 11.5703 20.6449 11.5703 20.6216 11.5703V14.5703C20.6216 14.5703 20.6217 14.5703 20.6217 14.5703C20.6218 14.5703 20.6218 14.5703 20.6218 14.5703C20.6219 14.5703 20.6219 14.5703 20.6219 14.5703C20.622 14.5703 20.622 14.5703 20.6221 14.5703C20.6221 14.5703 20.6221 14.5703 20.6222 14.5703C20.6222 14.5703 20.6223 14.5703 20.6223 14.5703C20.6223 14.5703 20.6224 14.5703 20.6224 14.5703C20.6225 14.5703 20.6225 14.5703 20.6225 14.5703C20.6226 14.5703 20.6226 14.5703 20.6227 14.5703C20.6227 14.5703 20.6227 14.5703 20.6228 14.5703C20.6228 14.5703 20.6229 14.5703 20.6229 14.5703C20.6229 14.5703 20.623 14.5703 20.623 14.5703C20.6231 14.5703 20.6231 14.5703 20.6231 14.5703C20.6232 14.5703 20.6232 14.5703 20.6233 14.5703C20.6233 14.5703 20.6233 14.5703 20.6234 14.5703C20.6234 14.5703 20.6235 14.5703 20.6235 14.5703C20.6235 14.5703 20.6236 14.5703 20.6236 14.5703C20.6237 14.5703 20.6237 14.5703 20.6237 14.5703C20.6238 14.5703 20.6238 14.5703 20.6239 14.5703C20.6239 14.5703 20.6239 14.5703 20.624 14.5703C20.624 14.5703 20.6241 14.5703 20.6241 14.5703C20.6241 14.5703 20.6242 14.5703 20.6242 14.5703C20.6243 14.5703 20.6243 14.5703 20.6243 14.5703C20.6244 14.5703 20.6244 14.5703 20.6245 14.5703C20.6245 14.5703 20.6246 14.5703 20.6246 14.5703C20.6246 14.5703 20.6247 14.5703 20.6247 14.5703C20.6248 14.5703 20.6248 14.5703 20.6248 14.5703C20.6249 14.5703 20.6249 14.5703 20.625 14.5703C20.625 14.5703 20.625 14.5703 20.6251 14.5703C20.6251 14.5703 20.6252 14.5703 20.6252 14.5703C20.6252 14.5703 20.6253 14.5703 20.6253 14.5703C20.6254 14.5703 20.6254 14.5703 20.6255 14.5703C20.6255 14.5703 20.6255 14.5703 20.6256 14.5703C20.6256 14.5703 20.6257 14.5703 20.6257 14.5703C20.6257 14.5703 20.6258 14.5703 20.6258 14.5703C20.6259 14.5703 20.6259 14.5703 20.626 14.5703C20.626 14.5703 20.626 14.5703 20.6261 14.5703C20.6261 14.5703 20.6262 14.5703 20.6262 14.5703C20.6262 14.5703 20.6263 14.5703 20.6263 14.5703C20.6264 14.5703 20.6264 14.5703 20.6265 14.5703C20.6265 14.5703 20.6265 14.5703 20.6266 14.5703C20.6266 14.5703 20.6267 14.5703 20.6267 14.5703C20.6267 14.5703 20.6268 14.5703 20.6268 14.5703C20.6269 14.5703 20.6269 14.5703 20.627 14.5703C20.627 14.5703 20.627 14.5703 20.6271 14.5703C20.6271 14.5703 20.6272 14.5703 20.6272 14.5703C20.6272 14.5703 20.6273 14.5703 20.6273 14.5703C20.6274 14.5703 20.6274 14.5703 20.6275 14.5703C20.6275 14.5703 20.6275 14.5703 20.6276 14.5703C20.6276 14.5703 20.6277 14.5703 20.6277 14.5703C20.6278 14.5703 20.6278 14.5703 20.6278 14.5703C20.6279 14.5703 20.6279 14.5703 20.628 14.5703C20.628 14.5703 20.6281 14.5703 20.6281 14.5703C20.6281 14.5703 20.6282 14.5703 20.6282 14.5703C20.6283 14.5703 20.6283 14.5703 20.6284 14.5703C20.6284 14.5703 20.6284 14.5703 20.6285 14.5703C20.6285 14.5703 20.6286 14.5703 20.6286 14.5703C20.6286 14.5703 20.6287 14.5703 20.6287 14.5703C20.6288 14.5703 20.6288 14.5703 20.6289 14.5703C20.6289 14.5703 20.6289 14.5703 20.629 14.5703C20.629 14.5703 20.6291 14.5703 20.6291 14.5703C20.6292 14.5703 20.6292 14.5703 20.6292 14.5703C20.6293 14.5703 20.6293 14.5703 20.6294 14.5703C20.6294 14.5703 20.6295 14.5703 20.6295 14.5703C20.6295 14.5703 20.6296 14.5703 20.6296 14.5703C20.6297 14.5703 20.6297 14.5703 20.6298 14.5703C20.6298 14.5703 20.6299 14.5703 20.6299 14.5703C20.6299 14.5703 20.63 14.5703 20.63 14.5703C20.6301 14.5703 20.6301 14.5703 20.6302 14.5703C20.6302 14.5703 20.6302 14.5703 20.6303 14.5703C20.6303 14.5703 20.6304 14.5703 20.6304 14.5703C20.6305 14.5703 20.6305 14.5703 20.6305 14.5703C20.6306 14.5703 20.6306 14.5703 20.6307 14.5703C20.6307 14.5703 20.6308 14.5703 20.6308 14.5703C20.6308 14.5703 20.6309 14.5703 20.6309 14.5703C20.631 14.5703 20.631 14.5703 20.6311 14.5703C20.6311 14.5703 20.6312 14.5703 20.6312 14.5703C20.6312 14.5703 20.6313 14.5703 20.6313 14.5703C20.6314 14.5703 20.6314 14.5703 20.6315 14.5703C20.6315 14.5703 20.6315 14.5703 20.6316 14.5703C20.6316 14.5703 20.6317 14.5703 20.6317 14.5703C20.6318 14.5703 20.6318 14.5703 20.6319 14.5703C20.6319 14.5703 20.6319 14.5703 20.632 14.5703C20.632 14.5703 20.6321 14.5703 20.6321 14.5703C20.6322 14.5703 20.6322 14.5703 20.6322 14.5703C20.6323 14.5703 20.6323 14.5703 20.6324 14.5703C20.6324 14.5703 20.6325 14.5703 20.6325 14.5703C20.6326 14.5703 20.6326 14.5703 20.6326 14.5703C20.6327 14.5703 20.6327 14.5703 20.6328 14.5703C20.6328 14.5703 20.6329 14.5703 20.6329 14.5703C20.633 14.5703 20.633 14.5703 20.633 14.5703C20.6331 14.5703 20.6331 14.5703 20.6332 14.5703C20.6332 14.5703 20.6333 14.5703 20.6333 14.5703C20.6333 14.5703 20.6334 14.5703 20.6334 14.5703C20.6335 14.5703 20.6335 14.5703 20.6336 14.5703C20.6336 14.5703 20.6337 14.5703 20.6337 14.5703C20.6337 14.5703 20.6338 14.5703 20.6338 14.5703C20.6339 14.5703 20.6339 14.5703 20.634 14.5703C20.634 14.5703 20.6341 14.5703 20.6341 14.5703C20.6341 14.5703 20.6342 14.5703 20.6342 14.5703C20.6343 14.5703 20.6343 14.5703 20.6344 14.5703C20.6344 14.5703 20.6345 14.5703 20.6345 14.5703C20.6345 14.5703 20.6346 14.5703 20.6346 14.5703C20.6347 14.5703 20.6347 14.5703 20.6348 14.5703C20.6348 14.5703 20.6349 14.5703 20.6349 14.5703C20.6349 14.5703 20.635 14.5703 20.635 14.5703C20.6351 14.5703 20.6351 14.5703 20.6352 14.5703C20.6352 14.5703 20.6353 14.5703 20.6353 14.5703C20.6354 14.5703 20.6354 14.5703 20.6354 14.5703C20.6355 14.5703 20.6355 14.5703 20.6356 14.5703C20.6356 14.5703 20.6357 14.5703 20.6357 14.5703C20.6358 14.5703 20.6358 14.5703 20.6358 14.5703C20.6359 14.5703 20.6359 14.5703 20.636 14.5703C20.636 14.5703 20.6361 14.5703 20.6361 14.5703C20.6362 14.5703 20.6362 14.5703 20.6362 14.5703C20.6363 14.5703 20.6363 14.5703 20.6364 14.5703C20.6364 14.5703 20.6365 14.5703 20.6365 14.5703C20.6366 14.5703 20.6366 14.5703 20.6367 14.5703C20.6367 14.5703 20.6367 14.5703 20.6368 14.5703C20.6368 14.5703 20.6369 14.5703 20.6369 14.5703C20.637 14.5703 20.637 14.5703 20.6371 14.5703C20.6371 14.5703 20.6371 14.5703 20.6372 14.5703C20.6372 14.5703 20.6373 14.5703 20.6373 14.5703C20.6374 14.5703 20.6374 14.5703 20.6375 14.5703C20.6375 14.5703 20.6376 14.5703 20.6376 14.5703C20.6376 14.5703 20.6377 14.5703 20.6377 14.5703C20.6378 14.5703 20.6378 14.5703 20.6379 14.5703C20.6379 14.5703 20.638 14.5703 20.638 14.5703C20.638 14.5703 20.6381 14.5703 20.6381 14.5703C20.6382 14.5703 20.6382 14.5703 20.6383 14.5703C20.6383 14.5703 20.6384 14.5703 20.6384 14.5703C20.6385 14.5703 20.6385 14.5703 20.6385 14.5703C20.6386 14.5703 20.6386 14.5703 20.6387 14.5703C20.6387 14.5703 20.6388 14.5703 20.6388 14.5703C20.6389 14.5703 20.6389 14.5703 20.639 14.5703C20.639 14.5703 20.639 14.5703 20.6391 14.5703C20.6391 14.5703 20.6392 14.5703 20.6392 14.5703C20.6393 14.5703 20.6393 14.5703 20.6394 14.5703C20.6394 14.5703 20.6395 14.5703 20.6395 14.5703C20.6395 14.5703 20.6396 14.5703 20.6396 14.5703C20.6397 14.5703 20.6397 14.5703 20.6398 14.5703C20.6398 14.5703 20.6399 14.5703 20.6399 14.5703C20.6399 14.5703 20.64 14.5703 20.64 14.5703C20.6401 14.5703 20.6401 14.5703 20.6402 14.5703C20.6402 14.5703 20.6403 14.5703 20.6403 14.5703C20.6404 14.5703 20.6404 14.5703 20.6404 14.5703C20.6405 14.5703 20.6405 14.5703 20.6406 14.5703C20.6406 14.5703 20.6407 14.5703 20.6407 14.5703C20.6408 14.5703 20.6408 14.5703 20.6409 14.5703C20.6409 14.5703 20.6409 14.5703 20.641 14.5703C20.641 14.5703 20.6411 14.5703 20.6411 14.5703C20.6412 14.5703 20.6412 14.5703 20.6413 14.5703C20.6413 14.5703 20.6414 14.5703 20.6414 14.5703C20.6414 14.5703 20.6415 14.5703 20.6415 14.5703C20.6416 14.5703 20.6416 14.5703 20.6417 14.5703C20.6417 14.5703 20.6418 14.5703 20.6418 14.5703C20.6419 14.5703 20.6419 14.5703 20.642 14.5703C20.642 14.5703 20.642 14.5703 20.6421 14.5703C20.6421 14.5703 20.6422 14.5703 20.6422 14.5703C20.6423 14.5703 20.6423 14.5703 20.6424 14.5703C20.6424 14.5703 20.6425 14.5703 20.6425 14.5703C20.6425 14.5703 20.6426 14.5703 20.6426 14.5703C20.6427 14.5703 20.6427 14.5703 20.6428 14.5703C20.6428 14.5703 20.6429 14.5703 20.6429 14.5703C20.643 14.5703 20.643 14.5703 20.643 14.5703C20.6431 14.5703 20.6431 14.5703 20.6432 14.5703C20.6432 14.5703 20.6433 14.5703 20.6433 14.5703C20.6434 14.5703 20.6434 14.5703 20.6435 14.5703C20.6435 14.5703 20.6435 14.5703 20.6436 14.5703C20.6436 14.5703 20.6437 14.5703 20.6437 14.5703C20.6438 14.5703 20.6438 14.5703 20.6439 14.5703C20.6439 14.5703 20.644 14.5703 20.644 14.5703C20.644 14.5703 20.6441 14.5703 20.6441 14.5703C20.6442 14.5703 20.6442 14.5703 20.6443 14.5703C20.6443 14.5703 20.6444 14.5703 20.6444 14.5703C20.6445 14.5703 20.6445 14.5703 20.6445 14.5703C20.6446 14.5703 20.6446 14.5703 20.6447 14.5703C20.6447 14.5703 20.6448 14.5703 20.6448 14.5703C20.6449 14.5703 20.6449 14.5703 20.645 14.5703C20.645 14.5703 20.645 14.5703 20.6451 14.5703C20.6451 14.5703 20.6452 14.5703 20.6452 14.5703C20.6453 14.5703 20.6453 14.5703 20.6454 14.5703C20.6454 14.5703 20.6455 14.5703 20.6455 14.5703C20.6455 14.5703 20.6456 14.5703 20.6456 14.5703C20.6457 14.5703 20.6457 14.5703 20.6458 14.5703C20.6458 14.5703 20.6459 14.5703 20.6459 14.5703C20.646 14.5703 20.646 14.5703 20.6461 14.5703C20.6461 14.5703 20.6461 14.5703 20.6462 14.5703C20.6462 14.5703 20.6463 14.5703 20.6463 14.5703C20.6464 14.5703 20.6464 14.5703 20.6465 14.5703C20.6465 14.5703 20.6466 14.5703 20.6466 14.5703C20.6466 14.5703 20.6467 14.5703 20.6467 14.5703C20.6468 14.5703 20.6468 14.5703 20.6469 14.5703C20.6469 14.5703 20.647 14.5703 20.647 14.5703C20.6471 14.5703 20.6471 14.5703 20.6471 14.5703C20.6472 14.5703 20.6472 14.5703 20.6473 14.5703C20.6473 14.5703 20.6474 14.5703 20.6474 14.5703C20.6475 14.5703 20.6475 14.5703 20.6476 14.5703C20.6476 14.5703 20.6476 14.5703 20.6477 14.5703C20.6477 14.5703 20.6478 14.5703 20.6478 14.5703C20.6479 14.5703 20.6479 14.5703 20.648 14.5703C20.648 14.5703 20.648 14.5703 20.6481 14.5703C20.6481 14.5703 20.6482 14.5703 20.6482 14.5703C20.6483 14.5703 20.6483 14.5703 20.6484 14.5703C20.6484 14.5703 20.6485 14.5703 20.6485 14.5703C20.6485 14.5703 20.6486 14.5703 20.6486 14.5703C20.6487 14.5703 20.6487 14.5703 20.6488 14.5703C20.6488 14.5703 20.6489 14.5703 20.6489 14.5703C20.649 14.5703 20.649 14.5703 20.649 14.5703C20.6491 14.5703 20.6491 14.5703 20.6492 14.5703C20.6492 14.5703 20.6493 14.5703 20.6493 14.5703C20.6494 14.5703 20.6494 14.5703 20.6495 14.5703C20.6495 14.5703 20.6495 14.5703 20.6496 14.5703C20.6496 14.5703 20.6497 14.5703 20.6497 14.5703C20.6498 14.5703 20.6498 14.5703 20.6499 14.5703C20.6499 14.5703 20.65 14.5703 20.65 14.5703C20.65 14.5703 20.6501 14.5703 20.6501 14.5703C20.6502 14.5703 20.6502 14.5703 20.6503 14.5703C20.6503 14.5703 20.6504 14.5703 20.6504 14.5703C20.6504 14.5703 20.6505 14.5703 20.6505 14.5703C20.6506 14.5703 20.6506 14.5703 20.6507 14.5703C20.6507 14.5703 20.6508 14.5703 20.6508 14.5703C20.6509 14.5703 20.6509 14.5703 20.6509 14.5703C20.651 14.5703 20.651 14.5703 20.6511 14.5703C20.6511 14.5703 20.6512 14.5703 20.6512 14.5703C20.6513 14.5703 20.6513 14.5703 20.6513 14.5703C20.6514 14.5703 20.6514 14.5703 20.6515 14.5703C20.6515 14.5703 20.6516 14.5703 20.6516 14.5703C20.6517 14.5703 20.6517 14.5703 20.6517 14.5703C20.6518 14.5703 20.6518 14.5703 20.6519 14.5703C20.6519 14.5703 20.652 14.5703 20.652 14.5703C20.6521 14.5703 20.6521 14.5703 20.6522 14.5703C20.6522 14.5703 20.6522 14.5703 20.6523 14.5703C20.6523 14.5703 20.6524 14.5703 20.6524 14.5703C20.6525 14.5703 20.6525 14.5703 20.6526 14.5703C20.6526 14.5703 20.6526 14.5703 20.6527 14.5703C20.6527 14.5703 20.6528 14.5703 20.6528 14.5703C20.6529 14.5703 20.6529 14.5703 20.653 14.5703C20.653 14.5703 20.653 14.5703 20.6531 14.5703C20.6531 14.5703 20.6532 14.5703 20.6532 14.5703C20.6533 14.5703 20.6533 14.5703 20.6534 14.5703C20.6534 14.5703 20.6534 14.5703 20.6535 14.5703C20.6535 14.5703 20.6536 14.5703 20.6536 14.5703C20.6537 14.5703 20.6537 14.5703 20.6538 14.5703C20.6538 14.5703 20.6538 14.5703 20.6539 14.5703C20.6539 14.5703 20.654 14.5703 20.654 14.5703C20.6541 14.5703 20.6541 14.5703 20.6542 14.5703C20.6542 14.5703 20.6542 14.5703 20.6543 14.5703C20.6543 14.5703 20.6544 14.5703 20.6544 14.5703C20.6545 14.5703 20.6545 14.5703 20.6546 14.5703C20.6546 14.5703 20.6546 14.5703 20.6547 14.5703C20.6547 14.5703 20.6548 14.5703 20.6548 14.5703C20.6549 14.5703 20.6549 14.5703 20.655 14.5703C20.655 14.5703 20.655 14.5703 20.6551 14.5703C20.6551 14.5703 20.6552 14.5703 20.6552 14.5703C20.6553 14.5703 20.6553 14.5703 20.6553 14.5703C20.6554 14.5703 20.6554 14.5703 20.6555 14.5703C20.6555 14.5703 20.6556 14.5703 20.6556 14.5703C20.6557 14.5703 20.6557 14.5703 20.6557 14.5703C20.6558 14.5703 20.6558 14.5703 20.6559 14.5703C20.6559 14.5703 20.656 14.5703 20.656 14.5703C20.656 14.5703 20.6561 14.5703 20.6561 14.5703C20.6562 14.5703 20.6562 14.5703 20.6563 14.5703C20.6563 14.5703 20.6564 14.5703 20.6564 14.5703C20.6564 14.5703 20.6565 14.5703 20.6565 14.5703C20.6566 14.5703 20.6566 14.5703 20.6567 14.5703C20.6567 14.5703 20.6567 14.5703 20.6568 14.5703C20.6568 14.5703 20.6569 14.5703 20.6569 14.5703C20.657 14.5703 20.657 14.5703 20.657 14.5703C20.6571 14.5703 20.6571 14.5703 20.6572 14.5703C20.6572 14.5703 20.6573 14.5703 20.6573 14.5703C20.6574 14.5703 20.6574 14.5703 20.6574 14.5703C20.6575 14.5703 20.6575 14.5703 20.6576 14.5703C20.6576 14.5703 20.6577 14.5703 20.6577 14.5703C20.6577 14.5703 20.6578 14.5703 20.6578 14.5703C20.6579 14.5703 20.6579 14.5703 20.658 14.5703C20.658 14.5703 20.658 14.5703 20.6581 14.5703C20.6581 14.5703 20.6582 14.5703 20.6582 14.5703C20.6583 14.5703 20.6583 14.5703 20.6583 14.5703C20.6584 14.5703 20.6584 14.5703 20.6585 14.5703C20.6585 14.5703 20.6586 14.5703 20.6586 14.5703C20.6586 14.5703 20.6587 14.5703 20.6587 14.5703C20.6588 14.5703 20.6588 14.5703 20.6589 14.5703C20.6589 14.5703 20.6589 14.5703 20.659 14.5703C20.659 14.5703 20.6591 14.5703 20.6591 14.5703C20.6592 14.5703 20.6592 14.5703 20.6592 14.5703C20.6593 14.5703 20.6593 14.5703 20.6594 14.5703C20.6594 14.5703 20.6595 14.5703 20.6595 14.5703C20.6595 14.5703 20.6596 14.5703 20.6596 14.5703C20.6597 14.5703 20.6597 14.5703 20.6598 14.5703C20.6598 14.5703 20.6598 14.5703 20.6599 14.5703C20.6599 14.5703 20.66 14.5703 20.66 14.5703C20.66 14.5703 20.6601 14.5703 20.6601 14.5703C20.6602 14.5703 20.6602 14.5703 20.6603 14.5703C20.6603 14.5703 20.6603 14.5703 20.6604 14.5703C20.6604 14.5703 20.6605 14.5703 20.6605 14.5703C20.6606 14.5703 20.6606 14.5703 20.6606 14.5703C20.6607 14.5703 20.6607 14.5703 20.6608 14.5703C20.6608 14.5703 20.6608 14.5703 20.6609 14.5703C20.6609 14.5703 20.661 14.5703 20.661 14.5703C20.6611 14.5703 20.6611 14.5703 20.6611 14.5703C20.6612 14.5703 20.6612 14.5703 20.6613 14.5703C20.6613 14.5703 20.6614 14.5703 20.6614 14.5703C20.6614 14.5703 20.6615 14.5703 20.6615 14.5703C20.6616 14.5703 20.6616 14.5703 20.6616 14.5703C20.6617 14.5703 20.6617 14.5703 20.6618 14.5703C20.6618 14.5703 20.6618 14.5703 20.6619 14.5703C20.6619 14.5703 20.662 14.5703 20.662 14.5703C20.6621 14.5703 20.6621 14.5703 20.6621 14.5703C20.6622 14.5703 20.6622 14.5703 20.6623 14.5703C20.6623 14.5703 20.6623 14.5703 20.6624 14.5703C20.6624 14.5703 20.6625 14.5703 20.6625 14.5703C20.6626 14.5703 20.6626 14.5703 20.6626 14.5703C20.6627 14.5703 20.6627 14.5703 20.6628 14.5703C20.6628 14.5703 20.6628 14.5703 20.6629 14.5703C20.6629 14.5703 20.663 14.5703 20.663 14.5703C20.663 14.5703 20.6631 14.5703 20.6631 14.5703C20.6632 14.5703 20.6632 14.5703 20.6632 14.5703C20.6633 14.5703 20.6633 14.5703 20.6634 14.5703C20.6634 14.5703 20.6634 14.5703 20.6635 14.5703C20.6635 14.5703 20.6636 14.5703 20.6636 14.5703C20.6637 14.5703 20.6637 14.5703 20.6637 14.5703C20.6638 14.5703 20.6638 14.5703 20.6639 14.5703C20.6639 14.5703 20.6639 14.5703 20.664 14.5703C20.664 14.5703 20.6641 14.5703 20.6641 14.5703C20.6641 14.5703 20.6642 14.5703 20.6642 14.5703C20.6643 14.5703 20.6643 14.5703 20.6643 14.5703C20.6644 14.5703 20.6644 14.5703 20.6645 14.5703C20.6645 14.5703 20.6645 14.5703 20.6646 14.5703C20.6646 14.5703 20.6647 14.5703 20.6647 14.5703C20.6647 14.5703 20.6648 14.5703 20.6648 14.5703C20.6649 14.5703 20.6649 14.5703 20.6649 14.5703C20.665 14.5703 20.665 14.5703 20.6651 14.5703C20.6651 14.5703 20.6651 14.5703 20.6652 14.5703C20.6652 14.5703 20.6653 14.5703 20.6653 14.5703C20.6653 14.5703 20.6654 14.5703 20.6654 14.5703C20.6655 14.5703 20.6655 14.5703 20.6655 14.5703C20.6656 14.5703 20.6656 14.5703 20.6656 14.5703C20.6657 14.5703 20.6657 14.5703 20.6658 14.5703C20.6658 14.5703 20.6658 14.5703 20.6659 14.5703C20.6659 14.5703 20.666 14.5703 20.666 14.5703C20.666 14.5703 20.6661 14.5703 20.6661 14.5703C20.6662 14.5703 20.6662 14.5703 20.6662 14.5703C20.6663 14.5703 20.6663 14.5703 20.6664 14.5703C20.6664 14.5703 20.6664 14.5703 20.6665 14.5703C20.6665 14.5703 20.6665 14.5703 20.6666 14.5703C20.6666 14.5703 20.6667 14.5703 20.6667 14.5703C20.6667 14.5703 20.6668 14.5703 20.6668 14.5703C20.6669 14.5703 20.6669 14.5703 20.6669 14.5703C20.667 14.5703 20.667 14.5703 20.667 14.5703C20.6671 14.5703 20.6671 14.5703 20.6672 14.5703C20.6672 14.5703 20.6672 14.5703 20.6673 14.5703C20.6673 14.5703 20.6674 14.5703 20.6674 14.5703C20.6674 14.5703 20.6675 14.5703 20.6675 14.5703C20.6675 14.5703 20.6676 14.5703 20.6676 14.5703C20.6677 14.5703 20.6677 14.5703 20.6677 14.5703C20.6678 14.5703 20.6678 14.5703 20.6678 14.5703C20.6679 14.5703 20.6679 14.5703 20.668 14.5703C20.668 14.5703 20.668 14.5703 20.6681 14.5703C20.6681 14.5703 20.6681 14.5703 20.6682 14.5703C20.6682 14.5703 20.6683 14.5703 20.6683 14.5703C20.6683 14.5703 20.6684 14.5703 20.6684 14.5703C20.6684 14.5703 20.6685 14.5703 20.6685 14.5703C20.6686 14.5703 20.6686 14.5703 20.6686 14.5703C20.6687 14.5703 20.6687 14.5703 20.6687 14.5703C20.6688 14.5703 20.6688 14.5703 20.6689 14.5703C20.6689 14.5703 20.6689 14.5703 20.669 14.5703C20.669 14.5703 20.669 14.5703 20.6691 14.5703C20.6691 14.5703 20.6692 14.5703 20.6692 14.5703C20.6692 14.5703 20.6693 14.5703 20.6693 14.5703C20.6693 14.5703 20.6694 14.5703 20.6694 14.5703C20.6694 14.5703 20.6695 14.5703 20.6695 14.5703C20.6696 14.5703 20.6696 14.5703 20.6696 14.5703C20.6697 14.5703 20.6697 14.5703 20.6697 14.5703C20.6698 14.5703 20.6698 14.5703 20.6698 14.5703C20.6699 14.5703 20.6699 14.5703 20.67 14.5703C20.67 14.5703 20.67 14.5703 20.6701 14.5703C20.6701 14.5703 20.6701 14.5703 20.6702 14.5703C20.6702 14.5703 20.6702 14.5703 20.6703 14.5703C20.6703 14.5703 20.6704 14.5703 20.6704 14.5703C20.6704 14.5703 20.6705 14.5703 20.6705 14.5703C20.6705 14.5703 20.6706 14.5703 20.6706 14.5703C20.6706 14.5703 20.6707 14.5703 20.6707 14.5703C20.6707 14.5703 20.6708 14.5703 20.6708 14.5703C20.6708 14.5703 20.6709 14.5703 20.6709 14.5703C20.671 14.5703 20.671 14.5703 20.671 14.5703C20.6711 14.5703 20.6711 14.5703 20.6711 14.5703C20.6712 14.5703 20.6712 14.5703 20.6712 14.5703C20.6713 14.5703 20.6713 14.5703 20.6713 14.5703C20.6714 14.5703 20.6714 14.5703 20.6714 14.5703C20.6715 14.5703 20.6715 14.5703 20.6716 14.5703C20.6716 14.5703 20.6716 14.5703 20.6717 14.5703C20.6717 14.5703 20.6717 14.5703 20.6718 14.5703C20.6718 14.5703 20.6718 14.5703 20.6719 14.5703C20.6719 14.5703 20.6719 14.5703 20.672 14.5703C20.672 14.5703 20.672 14.5703 20.6721 14.5703C20.6721 14.5703 20.6721 14.5703 20.6722 14.5703C20.6722 14.5703 20.6722 14.5703 20.6723 14.5703C20.6723 14.5703 20.6723 14.5703 20.6724 14.5703C20.6724 14.5703 20.6724 14.5703 20.6725 14.5703C20.6725 14.5703 20.6725 14.5703 20.6726 14.5703C20.6726 14.5703 20.6726 14.5703 20.6727 14.5703C20.6727 14.5703 20.6727 14.5703 20.6728 14.5703C20.6728 14.5703 20.6728 14.5703 20.6729 14.5703C20.6729 14.5703 20.6729 14.5703 20.673 14.5703C20.673 14.5703 20.673 14.5703 20.6731 14.5703C20.6731 14.5703 20.6731 14.5703 20.6732 14.5703C20.6732 14.5703 20.6732 14.5703 20.6733 14.5703C20.6733 14.5703 20.6733 14.5703 20.6734 14.5703C20.6734 14.5703 20.6734 14.5703 20.6735 14.5703C20.6735 14.5703 20.6735 14.5703 20.6736 14.5703C20.6736 14.5703 20.6736 14.5703 20.6737 14.5703C20.6737 14.5703 20.6737 14.5703 20.6738 14.5703C20.6738 14.5703 20.6738 14.5703 20.6739 14.5703C20.6739 14.5703 20.6739 14.5703 20.674 14.5703C20.674 14.5703 20.674 14.5703 20.6741 14.5703C20.6741 14.5703 20.6741 14.5703 20.6742 14.5703C20.6742 14.5703 20.6742 14.5703 20.6743 14.5703C20.6743 14.5703 20.6743 14.5703 20.6743 14.5703C20.6744 14.5703 20.6744 14.5703 20.6744 14.5703C20.6745 14.5703 20.6745 14.5703 20.6745 14.5703C20.6746 14.5703 20.6746 14.5703 20.6746 14.5703C20.6747 14.5703 20.6747 14.5703 20.6747 14.5703C20.6748 14.5703 20.6748 14.5703 20.6748 14.5703C20.6749 14.5703 20.6749 14.5703 20.6749 14.5703C20.6749 14.5703 20.675 14.5703 20.675 14.5703C20.675 14.5703 20.6751 14.5703 20.6751 14.5703C20.6751 14.5703 20.6752 14.5703 20.6752 14.5703C20.6752 14.5703 20.6753 14.5703 20.6753 14.5703C20.6753 14.5703 20.6753 14.5703 20.6754 14.5703C20.6754 14.5703 20.6754 14.5703 20.6755 14.5703C20.6755 14.5703 20.6755 14.5703 20.6756 14.5703C20.6756 14.5703 20.6756 14.5703 20.6756 14.5703C20.6757 14.5703 20.6757 14.5703 20.6757 14.5703C20.6758 14.5703 20.6758 14.5703 20.6758 14.5703C20.6759 14.5703 20.6759 14.5703 20.6759 14.5703C20.6759 14.5703 20.676 14.5703 20.676 14.5703C20.676 14.5703 20.6761 14.5703 20.6761 14.5703C20.6761 14.5703 20.6762 14.5703 20.6762 14.5703C20.6762 14.5703 20.6762 14.5703 20.6763 14.5703C20.6763 14.5703 20.6763 14.5703 20.6764 14.5703C20.6764 14.5703 20.6764 14.5703 20.6764 14.5703C20.6765 14.5703 20.6765 14.5703 20.6765 14.5703C20.6766 14.5703 20.6766 14.5703 20.6766 14.5703C20.6767 14.5703 20.6767 14.5703 20.6767 14.5703C20.6767 14.5703 20.6768 14.5703 20.6768 14.5703C20.6768 14.5703 20.6769 14.5703 20.6769 14.5703C20.6769 14.5703 20.6769 14.5703 20.677 14.5703C20.677 14.5703 20.677 14.5703 20.6771 14.5703C20.6771 14.5703 20.6771 14.5703 20.6771 14.5703C20.6772 14.5703 20.6772 14.5703 20.6772 14.5703C20.6772 14.5703 20.6773 14.5703 20.6773 14.5703C20.6773 14.5703 20.6774 14.5703 20.6774 14.5703C20.6774 14.5703 20.6774 14.5703 20.6775 14.5703C20.6775 14.5703 20.6775 14.5703 20.6776 14.5703C20.6776 14.5703 20.6776 14.5703 20.6776 14.5703C20.6777 14.5703 20.6777 14.5703 20.6777 14.5703C20.6777 14.5703 20.6778 14.5703 20.6778 14.5703C20.6778 14.5703 20.6779 14.5703 20.6779 14.5703C20.6779 14.5703 20.6779 14.5703 20.678 14.5703C20.678 14.5703 20.678 14.5703 20.678 14.5703C20.6781 14.5703 20.6781 14.5703 20.6781 14.5703C20.6781 14.5703 20.6782 14.5703 20.6782 14.5703C20.6782 14.5703 20.6783 14.5703 20.6783 14.5703C20.6783 14.5703 20.6783 14.5703 20.6784 14.5703C20.6784 14.5703 20.6784 14.5703 20.6784 14.5703C20.6785 14.5703 20.6785 14.5703 20.6785 14.5703C20.6785 14.5703 20.6786 14.5703 20.6786 14.5703C20.6786 14.5703 20.6786 14.5703 20.6787 14.5703C20.6787 14.5703 20.6787 14.5703 20.6787 14.5703C20.6788 14.5703 20.6788 14.5703 20.6788 14.5703C20.6788 14.5703 20.6789 14.5703 20.6789 14.5703C20.6789 14.5703 20.679 14.5703 20.679 14.5703C20.679 14.5703 20.679 14.5703 20.6791 14.5703C20.6791 14.5703 20.6791 14.5703 20.6791 14.5703C20.6792 14.5703 20.6792 14.5703 20.6792 14.5703C20.6792 14.5703 20.6792 14.5703 20.6793 14.5703C20.6793 14.5703 20.6793 14.5703 20.6793 14.5703C20.6794 14.5703 20.6794 14.5703 20.6794 14.5703C20.6794 14.5703 20.6795 14.5703 20.6795 14.5703C20.6795 14.5703 20.6795 14.5703 20.6796 14.5703C20.6796 14.5703 20.6796 14.5703 20.6796 14.5703C20.6797 14.5703 20.6797 14.5703 20.6797 14.5703C20.6797 14.5703 20.6798 14.5703 20.6798 14.5703C20.6798 14.5703 20.6798 14.5703 20.6799 14.5703C20.6799 14.5703 20.6799 14.5703 20.6799 14.5703C20.6799 14.5703 20.68 14.5703 20.68 14.5703C20.68 14.5703 20.68 14.5703 20.6801 14.5703C20.6801 14.5703 20.6801 14.5703 20.6801 14.5703C20.6802 14.5703 20.6802 14.5703 20.6802 14.5703C20.6802 14.5703 20.6802 14.5703 20.6803 14.5703C20.6803 14.5703 20.6803 14.5703 20.6803 14.5703C20.6804 14.5703 20.6804 14.5703 20.6804 14.5703C20.6804 14.5703 20.6804 14.5703 20.6805 14.5703C20.6805 14.5703 20.6805 14.5703 20.6805 14.5703C20.6806 14.5703 20.6806 14.5703 20.6806 14.5703C20.6806 14.5703 20.6806 14.5703 20.6807 14.5703C20.6807 14.5703 20.6807 14.5703 20.6807 14.5703C20.6808 14.5703 20.6808 14.5703 20.6808 14.5703C20.6808 14.5703 20.6808 14.5703 20.6809 14.5703C20.6809 14.5703 20.6809 14.5703 20.6809 14.5703C20.6809 14.5703 20.681 14.5703 20.681 14.5703C20.681 14.5703 20.681 14.5703 20.6811 14.5703C20.6811 14.5703 20.6811 14.5703 20.6811 14.5703C20.6811 14.5703 20.6812 14.5703 20.6812 14.5703C20.6812 14.5703 20.6812 14.5703 20.6812 14.5703C20.6813 14.5703 20.6813 14.5703 20.6813 14.5703C20.6813 14.5703 20.6813 14.5703 20.6814 14.5703C20.6814 14.5703 20.6814 14.5703 20.6814 14.5703C20.6814 14.5703 20.6815 14.5703 20.6815 14.5703C20.6815 14.5703 20.6815 14.5703 20.6815 14.5703C20.6816 14.5703 20.6816 14.5703 20.6816 14.5703V11.5703Z" fill="black" mask="url(#path-1-inside-1_1864_137047)"/>
</g>
<path id="Vector_2" d="M7.08946 6.21745C5.23803 7.52163 3.98332 9.49552 3.58082 11.7036M7.08946 6.21745C7.0896 6.21735 7.08975 6.21724 7.0899 6.21714C7.08996 6.21694 7.09003 6.21666 7.0901 6.21631C7.09029 6.21519 7.09017 6.21449 7.09015 6.21442L3.58082 11.7036M7.08946 6.21745C7.09004 6.21704 7.09027 6.21683 7.0903 6.2168C7.09033 6.21677 7.0902 6.21689 7.09003 6.21712L7.52184 6.83023L7.08935 6.21753C7.08938 6.21751 7.08942 6.21748 7.08946 6.21745ZM3.58082 11.7036C3.97854 9.49841 5.23255 7.52923 7.08442 6.21296L3.58082 11.7036Z" fill="black" stroke="black" stroke-width="1.5"/>
<path id="Vector_3" d="M16.12 21.68L15.902 21.23C14.6903 21.8169 13.4049 22.11 12.06 22.11C10.6602 22.11 9.32764 21.7892 8.07655 21.1642C7.94801 21.097 7.90403 20.9466 7.96475 20.8284C8.03147 20.6984 8.18276 20.6537 8.30156 20.7147L8.30471 20.7163C10.604 21.8767 13.3675 21.8976 15.6869 20.7804L15.6887 20.7796C15.8057 20.7227 15.9588 20.7723 16.0203 20.8987C16.0772 21.0157 16.0277 21.1688 15.9012 21.2303L16.12 21.68ZM16.12 21.68C14.84 22.3 13.48 22.61 12.06 22.61C10.58 22.61 9.16997 22.27 7.84997 21.61L8.52997 20.27C10.69 21.36 13.29 21.38 15.47 20.33C15.84 20.15 16.29 20.31 16.47 20.68C16.65 21.05 16.49 21.5 16.12 21.68Z" fill="black" stroke="black"/>
<path id="Vector_4" d="M12.0613 7.93988C10.3874 7.93988 9.03125 6.58374 9.03125 4.90988C9.03125 3.23603 10.3874 1.87988 12.0613 1.87988C13.7351 1.87988 15.0913 3.23602 15.0913 4.90988C15.0913 6.58282 13.726 7.93988 12.0613 7.93988ZM12.0613 2.38988C10.6651 2.38988 9.53125 3.52374 9.53125 4.91988C9.53125 6.31603 10.6651 7.44988 12.0613 7.44988C13.4574 7.44988 14.5913 6.31603 14.5913 4.91988C14.5913 3.52214 13.4458 2.38988 12.0613 2.38988Z" fill="black" stroke="black"/>
<path id="Vector_5" d="M4.83078 20.6704C2.88078 20.6704 1.30078 19.0904 1.30078 17.1404C1.30078 15.2004 2.88078 13.6104 4.83078 13.6104C6.78078 13.6104 8.36078 15.1904 8.36078 17.1404C8.36078 19.0804 6.78078 20.6704 4.83078 20.6704ZM4.83078 15.1104C3.71078 15.1104 2.80078 16.0204 2.80078 17.1404C2.80078 18.2604 3.71078 19.1704 4.83078 19.1704C5.95078 19.1704 6.86078 18.2604 6.86078 17.1404C6.86078 16.0204 5.95078 15.1104 4.83078 15.1104Z" fill="black"/>
<path id="Vector_6" d="M19.1706 20.6704C17.2206 20.6704 15.6406 19.0904 15.6406 17.1404C15.6406 15.2004 17.2206 13.6104 19.1706 13.6104C21.1206 13.6104 22.7006 15.1904 22.7006 17.1404C22.6906 19.0804 21.1106 20.6704 19.1706 20.6704ZM19.1706 15.1104C18.0506 15.1104 17.1406 16.0204 17.1406 17.1404C17.1406 18.2604 18.0506 19.1704 19.1706 19.1704C20.2906 19.1704 21.2006 18.2604 21.2006 17.1404C21.1906 16.0204 20.2906 15.1104 19.1706 15.1104Z" fill="black"/>
</g>
</g>
</g>
</svg>
