<svg width="21" height="20" viewBox="0 0 21 20" fill="none" xmlns="http://www.w3.org/2000/svg">
<g id="R icon">
<g id="vuesax/outline/trash">
<g id="trash">
<path id="Vector" d="M2.99708 4.98015L4.69437 4.81375L4.69437 4.81375L4.6965 4.81353C9.07209 4.36939 13.5175 4.54084 17.9943 4.98011C17.9945 4.98042 17.9946 4.98068 17.9947 4.98086C17.9947 4.98091 17.9947 4.98097 17.9947 4.98104L17.9945 4.98103L17.9944 4.98339H17.9943H17.9942H17.9941H17.994H17.9939H17.9938H17.9936H17.9935H17.9934H17.9933H17.9932H17.9931H17.993H17.9929H17.9928H17.9927H17.9925H17.9924H17.9923H17.9922H17.9921H17.992H17.9919H17.9918H17.9917H17.9915H17.9914H17.9913H17.9912H17.9911H17.991H17.9909H17.9908H17.9906H17.9905H17.9904H17.9903H17.9902H17.9901H17.99H17.9899H17.9897H17.9896H17.9895H17.9894H17.9893H17.9892H17.989H17.9889H17.9888H17.9887H17.9886H17.9885H17.9884H17.9882H17.9881H17.988H17.9879H17.9878H17.9877H17.9875H17.9874H17.9873H17.9872H17.9871H17.9869H17.9868H17.9867H17.9866H17.9865H17.9864H17.9862H17.9861H17.986H17.9859H17.9858H17.9856H17.9855H17.9854H17.9853H17.9852H17.985H17.9849H17.9848H17.9847H17.9846H17.9844H17.9843H17.9842H17.9841H17.984H17.9838H17.9837H17.9836H17.9835H17.9833H17.9832H17.9831H17.983H17.9829H17.9827H17.9826H17.9825H17.9824H17.9822H17.9821H17.982H17.9819H17.9817H17.9816H17.9815H17.9814H17.9812H17.9811H17.981H17.9809H17.9808H17.9806H17.9805H17.9804H17.9802H17.9801H17.98H17.9799H17.9797H17.9796H17.9795H17.9794H17.9792H17.9791H17.979H17.9789H17.9787H17.9786H17.9785H17.9784H17.9782H17.9781H17.978H17.9778H17.9777H17.9776H17.9775H17.9773H17.9772H17.9771H17.9769H17.9768H17.9767H17.9766H17.9764H17.9763H17.9762H17.976H17.9759H17.9758H17.9757H17.9755H17.9754H17.9753H17.9751H17.975H17.9749H17.9747H17.9746H17.9745H17.9744H17.9742H17.9741H17.974H17.9738H17.9737H17.9736H17.9734H17.9733H17.9732H17.973H17.9729H17.9728H17.9726H17.9725H17.9724H17.9722H17.9721H17.972H17.9718H17.9717H17.9716H17.9714H17.9713H17.9712H17.971H17.9709H17.9708H17.9706H17.9705H17.9704H17.9702H17.9701H17.97H17.9698H17.9697H17.9696H17.9694H17.9693H17.9692H17.969H17.9689H17.9688H17.9686H17.9685H17.9684H17.9682H17.9681H17.968H17.9678H17.9677H17.9675H17.9674H17.9673H17.9671H17.967H17.9669H17.9667H17.9666H17.9665H17.9663H17.9662H17.966H17.9659H17.9658H17.9656H17.9655H17.9654H17.9652H17.9651H17.965H17.9648H17.9647H17.9646C13.5431 4.5417 9.10876 4.37361 4.70472 4.81981C4.70438 4.81984 4.70404 4.81988 4.7037 4.81991L3.00746 4.98621C3.00734 4.98622 3.00723 4.98623 3.00711 4.98624C3.00248 4.98664 3.0003 4.98602 2.99962 4.98582C2.99866 4.98552 2.99799 4.98513 2.99758 4.98482C2.99748 4.98434 2.99734 4.98358 2.99724 4.98247C2.99715 4.98159 2.99711 4.98082 2.99708 4.98015Z" fill="#D92D20" stroke="#D92D20" stroke-width="1.25"/>
<path id="Vector_2" d="M7.77583 3.0518L7.59563 4.07032L7.76642 3.05335L7.76654 3.05259C7.83745 2.62716 7.90132 2.31816 8.0869 2.08888C8.14922 2.01188 8.241 1.92637 8.38708 1.85255C8.32008 1.89017 8.25455 1.93672 8.19274 1.99458C8.00887 2.16668 7.9263 2.37554 7.87946 2.53938C7.83709 2.6876 7.80761 2.86288 7.78007 3.02658C7.77865 3.03502 7.77724 3.04343 7.77583 3.0518ZM9.41672 1.67484C9.26461 1.67484 9.11748 1.67786 8.98069 1.68999C9.10602 1.67498 9.24779 1.6665 9.40838 1.6665H11.5917C11.7453 1.6665 11.8818 1.67451 12.0032 1.68877C11.8755 1.67797 11.74 1.67484 11.6 1.67484H9.41672Z" fill="#D92D20" stroke="#D92D20" stroke-width="1.25"/>
<path id="Vector_3" d="M4.66563 7.62594L4.66564 7.62594L4.66533 7.62166C4.66329 7.59376 4.67242 7.56342 4.69632 7.53624C4.71915 7.51027 4.74928 7.49454 4.78055 7.49073C4.8595 7.4901 4.91249 7.54526 4.91789 7.60997L5.45937 15.9987L5.45935 15.9987L5.45963 16.0026L5.46132 16.0259C5.48291 16.3244 5.50402 16.6165 5.55291 16.8683C5.60412 17.132 5.69483 17.4062 5.89329 17.6377C6.29414 18.1054 6.96409 18.2082 7.825 18.2082H13.175C14.0391 18.2082 14.7118 18.1057 15.113 17.6377C15.312 17.4055 15.4021 17.1304 15.4522 16.8661C15.5003 16.6123 15.5196 16.318 15.5394 16.0175L15.5406 15.9993L15.5406 15.9987L16.0821 7.61005C16.0873 7.54867 16.1449 7.49021 16.2196 7.49072C16.2942 7.49922 16.339 7.56082 16.3346 7.62253L16.3344 7.62594L15.7929 16.0147C15.7929 16.0152 15.7928 16.0157 15.7928 16.0162C15.7449 16.6948 15.6906 17.2707 15.383 17.7004C15.1082 18.0844 14.5403 18.4582 13.175 18.4582H7.825C6.4597 18.4582 5.89182 18.0844 5.61698 17.7004C5.30935 17.2707 5.25507 16.6948 5.2072 16.0161C5.20716 16.0156 5.20713 16.0151 5.20709 16.0147L4.66563 7.62594Z" fill="#D92D20" stroke="#D92D20"/>
<path id="Vector_4" d="M11.8834 13.875H9.1084C9.07825 13.875 9.04697 13.8627 9.02133 13.8371C8.99568 13.8114 8.9834 13.7801 8.9834 13.75C8.9834 13.7199 8.99568 13.6886 9.02133 13.6629C9.04697 13.6373 9.07825 13.625 9.1084 13.625H11.8834C11.9135 13.625 11.9448 13.6373 11.9705 13.6629C11.9961 13.6886 12.0084 13.7199 12.0084 13.75C12.0084 13.7801 11.9961 13.8114 11.9705 13.8371C11.9448 13.8627 11.9135 13.875 11.8834 13.875Z" fill="#D92D20" stroke="#D92D20"/>
<path id="Vector_5" d="M12.5834 10.5415H8.41675C8.3866 10.5415 8.35532 10.5292 8.32968 10.5036C8.30403 10.4779 8.29175 10.4467 8.29175 10.4165C8.29175 10.3864 8.30403 10.3551 8.32968 10.3294C8.35532 10.3038 8.3866 10.2915 8.41675 10.2915H12.5834C12.6136 10.2915 12.6448 10.3038 12.6705 10.3294C12.6961 10.3551 12.7084 10.3864 12.7084 10.4165C12.7084 10.4467 12.6961 10.4779 12.6705 10.5036C12.6448 10.5292 12.6136 10.5415 12.5834 10.5415Z" fill="#D92D20" stroke="#D92D20"/>
</g>
</g>
</g>
</svg>
