<svg width="48" height="48" viewBox="0 0 48 48" fill="none" xmlns="http://www.w3.org/2000/svg">
<g id="user-square">
<g id="vuesax/bold/user-square">
<g id="user-square_2">
<g id="Group">
<path id="Vector" d="M32.38 4H15.62C8.34 4 4 8.34 4 15.62V32.38C4 38 6.58 41.86 11.12 43.32C12.44 43.78 13.96 44 15.62 44H32.38C34.04 44 35.56 43.78 36.88 43.32C41.42 41.86 44 38 44 32.38V15.62C44 8.34 39.66 4 32.38 4ZM41 32.38C41 36.66 39.32 39.36 35.94 40.48C34 36.66 29.4 33.94 24 33.94C18.6 33.94 14.02 36.64 12.06 40.48H12.04C8.7 39.4 7 36.68 7 32.4V15.62C7 9.98 9.98 7 15.62 7H32.38C38.02 7 41 9.98 41 15.62V32.38Z" fill="#292D32"/>
<path id="Vector_2" d="M23.9998 16C20.0398 16 16.8398 19.2 16.8398 23.16C16.8398 27.12 20.0398 30.34 23.9998 30.34C27.9598 30.34 31.1598 27.12 31.1598 23.16C31.1598 19.2 27.9598 16 23.9998 16Z" fill="#292D32"/>
</g>
</g>
</g>
</g>
</svg>
