<svg width="20" height="21" viewBox="0 0 20 21" fill="none" xmlns="http://www.w3.org/2000/svg">
<g id="Prefix">
<g id="vuesax/linear/profile">
<g id="profile">
<path id="Vector" d="M10.1341 9.55841C10.0508 9.55008 9.95078 9.55008 9.85911 9.55841C7.87578 9.49175 6.30078 7.86675 6.30078 5.86675C6.30078 3.82508 7.95078 2.16675 10.0008 2.16675C12.0424 2.16675 13.7008 3.82508 13.7008 5.86675C13.6924 7.86675 12.1174 9.49175 10.1341 9.55841Z" stroke="#B9C0D4" stroke-width="1.25" stroke-linecap="round" stroke-linejoin="round"/>
<path id="Vector_2" d="M5.96758 12.6333C3.95091 13.9833 3.95091 16.1833 5.96758 17.5249C8.25924 19.0583 12.0176 19.0583 14.3092 17.5249C16.3259 16.1749 16.3259 13.9749 14.3092 12.6333C12.0259 11.1083 8.26758 11.1083 5.96758 12.6333Z" stroke="#B9C0D4" stroke-width="1.25" stroke-linecap="round" stroke-linejoin="round"/>
</g>
</g>
</g>
</svg>
